<?xml version="1.0" encoding="utf-8"?>
<!-- Generator: Adobe Illustrator 23.0.1, SVG Export Plug-In . SVG Version: 6.00 Build 0)  -->
<svg version="1.1" id="Layer_1" xmlns="http://www.w3.org/2000/svg" xmlns:xlink="http://www.w3.org/1999/xlink" x="0px" y="0px"
	 viewBox="0 0 250 250" style="enable-background:new 0 0 250 250;" xml:space="preserve">
<style type="text/css">
	.st0{fill:#666666;}
	.st1{fill:#999999;}
	.st2{fill:#CCCCCC;}
	.st3{fill:#333333;}
	.st4{opacity:0.7;}
	.st5{fill:#4B2C1C;}
</style>
<path d="M77.7,169.1c2-0.3,1.7-2.4,2.7-3.5c1.9,0.9,2.3,2.8,3,4.5c0.6,1.3,1.4,2.1,2.7,0.9c-0.9-1.7-2.2-3.3-2.5-5
	c-0.3-1.8-0.7-1.9-2-1.2c3.3-2.9,6.2-6.5,11.1-7.1c0.7-0.1,1.3-1.5,1.8-2.4c1.4-2.5,3.7-3.4,6.2-3.8c2.8-0.5,4-2.4,2.8-5
	c-0.2-0.4-0.9-1.1-1.2-1c-1.9,0.5-4.2,0.1-5.4,2.2c-1.8,3.3-5.1,4.5-8.3,5.8c-2.9,1.2-5.8,2.2-8.8,3.3c-0.8,0.3-1.9,0.6-2.7,0.4
	c-2-0.6-3,0.3-3.8,1.8c-0.9-0.2-1.8-0.4-2.8-0.6c-2.1-0.4-4-0.5-5.7,1.3c-1.9,2-4.2,1.9-5.7,0.4c-1.1,0.3-2.1,0.8-3.2,0.9
	c-1,0.1-2,0-2.4-1.5c-0.4-1.5-1.8-1.7-3.1-1.5c-2.1,0.3-3-0.5-3.2-2.5c-0.1-1.2-0.5-2.3-0.8-3.5c-0.6-2.5,0.2-4.2,2.5-5.5
	c0.2-0.1,0.4-0.4,0.5-0.6c0.4-1.3,0.8-2.6,1.3-4.2c-0.8-0.4-1.9-1.1-3-1.7c-2.4-1.4-4.7-2.7-7.3-3.7c-1.9-0.7-4.3-1.5-5.9-2.8
	c-3.6-3-6.9-6.5-9.9-10c-1.2-1.4-2.6-3.7,0.4-5.2c0.3-0.1,0.4-1,0.3-1.5c-0.7-2.3,1-5.1,3.5-5.3c1.7-0.1,2.8-0.5,2.9-2.5
	c0-0.6,1.1-1.2,1.9-1.6c0.7-0.3,1.6-0.2,2.5-0.1c-1.2,0.4-2.4,0.8-3.7,1.2c0.1,0.3,0.1,0.5,0.2,0.8c3.3-0.6,6.7-1.3,10.1-1.9
	c-0.1-0.1-0.3-0.6-0.7-1.5c1.1,0,1.9,0,2.7-0.1c1.4-0.1,2.8,0,4.1-0.4c2.1-0.6,2.2-1.6,1.4-3.6c-0.8-2.1-1.6-4.3-2.1-6.6
	c-0.2-1.2,0.3-2.6,0.5-4.1c1-1.1,2.1-2.5,3.2-3.8c1,0.8,1.8,1.5,2.7,2.1c0.3,0.2,0.8,0.2,1.3,0.3c0-0.5,0.1-1,0-1.5
	c-0.1-0.5-0.5-1-0.8-1.6c2.5-0.4,4.5,0.2,6.1,2.1c0.3,0.4,1.1,0.5,1.7,0.7c0.2-0.6,0.4-1.2,0.7-1.8c3.7-1.2,6.6,1.7,9.6,2.9
	c0.3,0.4,0.7,1.3,0.8,1.3c3.1-0.9,4.9,1.7,7.2,2.7c2.8,1.3,5.6,2.7,8.4,4.2c2,1.1,3.9,2.3,5.8,3.4c2,1.2,4.1,2.4,6.2,3.5
	c1.4,0.7,2.8,1.4,4.3,2c0.4,0.2,1.4-0.1,1.6-0.4c0.3-0.5,0.3-1.6-0.1-1.9c-1.3-1.3-2.6-2.7-4.2-3.3c-2.1-0.9-4.2-1.6-5.5-3.6
	c-0.2-0.3-0.6-0.6-1-0.8c-2.2-1.3-4.3-2.6-6.5-4c-1.2-0.8-2.6-1.4-3.6-2.4c-1.1-1-2-2.3-3-3.4c-0.8-0.9-1.5-2.1-2.5-2.7
	c-2.2-1.3-3.2-3.4-4.3-5.5c-1.3-2.5-2.7-4.9-4-7.4c0-0.1-0.1-0.1-0.1-0.2c-0.1-4.3-3.7-7.1-4.5-11c-0.6-3-1.4-6.2-0.1-9.1
	c0.5-1.2,2.2-1.9,3.2-2.9c0.7-0.7,1.1-1.6,1.8-2.6c1.1,0.6,2.6,0.4,4.4-0.5c2.8-1.3,5.7,0.4,8.6,0.7c4.7,0.4,8.4,3.7,12.6,5.4
	c1,0.4,1.5,1.8,2.4,2.6c0.7,0.6,1.6,0.8,2.4,1.1c0.3-0.7,0.7-1.5,0.9-2.2c0.3-2.2,0.3-4.3-0.3-6.6c-0.4-1.6,0.9-3.8,1.5-5.7
	c0.2-0.8,0.8-1.7,0.7-2.5c-0.3-2.2,1-3.6,2.3-4.7c1.3-1.2,2.4-2.1,2.2-4.1c-0.1-1,0.2-2.4,2.1-2.3c1.6,0.1,1.2-1.1,0.5-2.2
	c1-0.3,2.1-0.3,2.8-0.8c0.6-0.5,0.9-1.5,1.2-2.2c0.9-0.3,1.9-0.6,2.9-1c2-0.8,3.9-2.1,6.3-1.5c0.5,0.1,1.1-0.4,1.7-0.5
	c1.2-0.2,2.7-0.9,3.7-0.5c4.9,2.2,8.6,5.7,10.3,11c0.2,0.7,0.8,1.3,1.1,2c1.1,2.8,2.4,5.6,3.3,8.5c0.5,1.7,0.4,3.6,0.5,5.4
	c0.3,3.7,0.6,7.4,0.8,11.1c0.1,2,1.7,2.7,3.1,3.3c0.3,0.1,1.4-1,1.9-1.7c0.4-0.5,0.4-1.3,0.6-1.7c1,0.5,1.7,0.9,2.8,1.5
	c0.2-1.2,0.3-2.1,0.4-2.9c1.6-0.6,3.2-1.1,4.9-1.7c0,1.3,0,2.4,0.1,3.4c0.1,0.5,0.5,0.9,0.8,1.4c0.3-0.6,0.9-1.1,0.9-1.7
	c0-0.9-0.3-1.8-0.4-2.4c2.2-0.5,4-1.3,5.9-1.4c2.6-0.1,5.1,0.2,7.7,0.6c1.9,0.3,3.6,1,5.5,1.3c2.4,0.4,3.3,1.2,3.6,3.6
	c0.2,1.6,0.5,3.1,0.8,4.7c-0.6,0-1.5-0.2-1.8,0.1c-0.4,0.5-0.4,1.4-0.6,2.1c0.4,0.3,0.7,0.6,1.1,0.8c0.3-0.6,0.5-1.1,0.8-1.7
	c0.2,3.1-1.4,5.8-2.5,8.5c-1.1,2.7-2.9,5.1-4.4,7.6c-0.7,1.1-2,2.1-2.2,3.3c-0.4,1.9-1.5,2.7-2.9,3.6c-1.8,1.2-3.5,2.7-5.2,4
	c-0.6,0.5-1.4,0.8-2.2,1c-1.3,0.3-2.5,0.5-2.8,2.1c-0.1,0.3-0.3,0.7-0.6,0.8c-4.3,2.9-8.5,5.8-12.8,8.6c-1.5,0.9-1.9,1.9-1.5,3.5
	c0.4,1.7,1.8,1.6,3,1.3c1.4-0.3,2.8-0.5,4-1c0.6-0.2,1.3-1.1,1.3-1.7c-0.1-1.9,1.1-2.5,2.5-2.9c1.1-0.3,2.2-0.5,3.2-0.9
	c0.6-0.3,1.4-0.9,1.5-1.4c0.6-2.3,3.2-4.3,5.5-4.1c0.6,0,1.6-0.4,1.9-0.9c1.1-2,2.3-3.3,4.8-2.1c0.2,0.1,0.6-0.1,0.7-0.2
	c1.7-1.6,3.9-1.4,6-1.6c1.8-0.2,3.7-0.7,5.5-0.9c1.5-0.2,3.1-0.2,4.9-0.2c0-0.2-0.1-0.6-0.1-1.2c0.4,0,0.9-0.2,1.2,0
	c1.9,1.1,3.7,2.2,5.5,3.3c0.4,0.3,0.8,0.9,1.1,0.8c3.3-0.5,3.2,1.9,3.4,3.9c0.3,2.6-0.3,5-2,7.1c-1.6,2-3.4,4-3.4,6.8
	c0,0.4-0.3,0.8-0.5,1.1c-1.2,1.6-0.8,3,1.2,3.3c2.6,0.4,5.3,0.3,8,0.7c3.2,0.5,6.5,0.9,9.5,2.1c2,0.8,3.5,2.9,5.3,4.4
	c0.9,0.8,2,1.6,2.7,2.6c0.6,0.8,1,1.9,1.4,2.9c1.4,4.6-0.1,9.6-3.9,12.7c-0.2,0.1-0.4,0.2-0.6,0.3c-1.9,0.6-3.8,1.3-5.8,1.9
	c-2.4,0.7-4.9,1.4-7.3,2.1c-1.1,0.3-2.5-0.4-3.3,1.1c-0.1,0.2-1.3,0.2-1.7-0.1c-1.4-0.8-2.7-0.5-3.2,0.7c-0.3,0.6,0.7,1.9,1.4,2.6
	c2,2.1,5,3.7,4.9,7c0,3.2-0.1,6.6-1.4,9.3c-0.7,1.5-3.8,2.2-5.9,2.7c-2.2,0.6-4-0.7-5.3-2.8c-1.6,2.3-3.1,1.7-4.7,0.4
	c-0.6-0.5-1.5-1-2.3-1c-2.9,0.3-5.2-1.1-7.7-2.2c-0.6-0.2-1.2-0.4-1.8-0.3c-1.6,0.2-2.7-0.4-3.5-1.7c-0.3-0.4-0.6-0.9-1-1
	c-3.4-1.4-5.7-4-7.9-6.9c-1.7-2.3-4.4-4-6.7-5.8c-0.4-0.3-1.5-0.3-1.9,0c-0.7,0.7-1.8,1.8-1.6,2.6c0.4,2.1,1.4,3.9,3.5,5.2
	c2,1.2,3.5,3,5.3,4.5c0.3,0.2,0.4,0.7,0.7,0.8c5.4,1.5,7.2,7.5,11.9,9.9c0.7,0.4,1.1,1.5,1.6,2.2c0.3,0.4,0.6,1.1,1,1.3
	c4.2,1.6,4.9,5.5,6.3,9.2c-1.6-0.1-2.9-0.1-4.1-0.2c-0.1,0.2-0.3,0.5-0.4,0.7c0.9,0.8,1.8,1.7,2.8,2.3c0.4,0.2,1.2-0.3,2-0.6
	c0.8,3.6,2.3,7.5,0.3,11.5c-0.3,0.5-0.9,0.8-1.2,1.3c-0.3,0.4-0.6,1-0.5,1.4c0.3,2.4-0.8,3.5-3.2,3.2c-0.9-0.1-1.8-0.5-2.7-0.4
	c-1.2,0.1-2.3,0.5-3.5,0.8c-0.5,0.1-1,0.4-1.4,0.3c-2.3-0.7-4.5-1.4-6.8-2.2c-0.4-0.1-0.8-0.5-0.9-0.8c-0.2-2.5-2.2-1.8-3.6-2.2
	c-1-0.3-2.4-1.1-2.7-2c-0.4-1.3-1-1.8-2.2-1.7c-1.6,0-2.8-0.5-3.7-1.9c-0.9-1.4-1.9-1.2-2.3,0.4c-0.4,1.9-0.7,3.8-0.8,5.7
	c-0.1,2.8,0.4,5.6,0.1,8.4c-0.3,2.5-1.1,5-2,7.5c-0.6,1.8-1.6,3.6-2.6,5.3c-0.6,1.1-1.2,2.2-2.7,2.7c-0.9,0.3-1.5,1.9-2,3
	c-0.9,1.9-3.8,3.1-5.7,2.9c-1.3-0.2-2.9,0.3-4,1.1c-1,0.7-1.6,0.9-2.6,0.2c-1.2-0.8-2.4-0.9-3.6,0.2c-0.4,0.3-1.3,0.4-1.7,0.2
	c-2.5-1.9-4.8-3.8-7.2-5.8c-0.2-0.2-0.6-0.4-0.6-0.6c0.2-2.3-1.9-3.1-2.8-4.7c-1.2-2.2-2.2-4.5-3.1-6.8c-1.8-5.2-2.5-10.5-2.2-16
	c0.1-2.3-0.5-2.9-2.8-2.9c-2,0-3.8,0-5.2,2c-0.6,0.9-2.4,0.9-3.6,1.4c-2.1,0.9-4.2,2.2-6.4,2.7c-2.5,0.6-5.1,0.5-7.7,0.7
	c-0.7,0-1.4-0.1-2-0.1c-0.3,0-0.6,0.3-0.9,0.5c-1.4,0.4-6.8-2.7-7.3-4.1c-1.1-3.4-2.6-6.9-1.6-10.5c0.8-2.9,0.1-6.3,2.8-8.7
	c0.7-0.6,0.5-2.2,0.6-2.8c0.9-1.4,1.5-2.5,2.2-3.6c0.3-0.4,0.8-0.7,1.2-1.1c0.3,1.1,0.6,2.1,0.9,3.2c0.2-0.1,0.5-0.1,0.7-0.2
	C78.2,171.5,80.2,169.9,77.7,169.1z M148.9,142.1c0.5-0.5,0.8-1.1,1.3-1.2c2.4-0.6,0.7-3.7,3.4-4.8c2.5-1,4.3-7.2,2.9-9.9
	c-1.8-3.2-2.3-7.1-5.3-9.8c-2.3-2.1-3.9-5-5.9-7.4c-1.8-2.1-3.9-4.1-5.9-6.2c-0.6-0.6-1.2-1.3-1.7-2c-0.7-0.9-1.2-1.8-2.2-3.2
	c-2.4,0.2-5.1-0.5-6.8-4.4c-1,1.3-1.5,2.3-2.3,2.8c-2.7,1.8-5.7,3.2-6.7,6.7c0,0.1-0.2,0.2-0.3,0.3c-2.2,1.7-4.4,3.3-6.6,5.1
	c-0.7,0.6-2,0.8-1.4,2.3c0.1,0.2-0.6,0.7-0.9,1.1c-1.3,1.5-2.6,3.1-3.8,4.6c-0.3,0.3-0.4,0.8-0.7,1c-3,2-5.4,7.8-4.6,11.1
	c0.5,2.2,0.9,4.4,2.5,6c1,1,2.3,1.8,3.2,2.8c2.1,2.2,4,4.5,6,6.8c0.2,0.2,0.4,0.3,0.7,0.5c3.3,2.6,6.8,5,9.9,7.7
	c3.7,3.2,9.1,3.2,12.5-0.1c2.1-2.1,4.5-4.1,6.6-6.2c1.5-1.6,4.4-1.8,4.6-4.6c0-0.2,0.2-0.3,0.4-0.5
	C148.2,141.1,148.5,141.5,148.9,142.1z M141.4,179.7c-0.4-1.5-0.8-2.8-1.2-4.2c-0.1-0.3-0.5-0.7-0.6-0.7c-0.3,0.1-0.9,0.4-0.9,0.7
	c0,1,0.1,2,0.2,3.2c0,0-0.2,0.1-0.2,0.3c-0.2,0.6-0.5,1.2-0.7,1.9c0.5-0.2,1-0.4,1.5-0.5C140.3,180.1,140.9,179.9,141.4,179.7z
	 M111.2,62.8c-0.3-1.4-0.4-2.5-0.7-3.4c-0.1-0.4-0.8-0.6-1.2-0.9c-0.3,0.5-0.8,1-0.8,1.5c0,0.8,0.3,1.6,0.5,2.7
	C109.6,62.6,110.3,62.7,111.2,62.8z M62,145.2c0,0.2,0,0.4,0,0.7c0.5,0.2,1.1,0.3,1.8,0.5c-0.6,0.6-1,1.1-1.4,1.6
	c0.1,0.2,0.3,0.4,0.4,0.7c0.8-0.4,1.7-0.7,2.2-1.4c0.3-0.4,0-1.7-0.4-1.9C63.9,145,62.9,145.2,62,145.2z M105.8,188.5
	c0-0.7,0-1.2-0.1-1.6c-0.1-0.7-0.2-1.4-0.3-2.1c-0.6,0.5-1.4,0.9-1.7,1.5C102.9,188.1,104.3,188.3,105.8,188.5z M177.9,131
	c-0.2-0.2-0.5-0.3-0.7-0.5c-1.1,1.2-2.1,2.4-3.6,3.9c1,0,1.8,0.3,1.9,0.1C176.5,133.4,177.2,132.2,177.9,131z M134.6,190.4
	c-1-0.6-1.6-1.2-2.1-1.2c-0.5,0-1.1,0.6-1.6,0.9c0.4,0.5,0.8,1.3,1.2,1.3C132.7,191.4,133.4,190.9,134.6,190.4z M91.8,163.4
	c-0.2,0.1-0.4,0.3-0.6,0.4c0.5,0.9,0.8,1.9,1.5,2.6c0.3,0.3,1.2-0.1,1.9-0.3c0-0.2,0-0.4,0.1-0.6C93.7,164.8,92.8,164.1,91.8,163.4z
	 M182.4,122.2c1.3,0.6,2.4,0.6,3.1-0.6c0.2-0.3,0-1.1-0.2-1.2C183.8,119.9,183.1,120.8,182.4,122.2z M112.7,158.5
	c-0.2,0.1-0.4,0.1-0.7,0.2c-0.3,0.8-0.7,1.7-0.9,2.5c-0.1,0.3,0.5,0.7,0.7,1.1c0.5-0.7,1.1-1.4,1.4-2.3
	C113.4,159.7,112.9,159,112.7,158.5z M101,90.1c-0.7,1.5-1,2.2-1.4,3.2c0.2,0.1,0.6,0.6,1.1,1c0.3-0.4,0.9-0.8,0.9-1.2
	C101.6,92.2,101.3,91.3,101,90.1z M98.8,191.9c-0.3-0.1-0.7-0.1-1-0.2c-0.1,0.9-0.3,1.7-0.4,2.6c0,0.1,0.7,0.2,1,0.3
	C98.5,193.7,98.6,192.8,98.8,191.9z M109.6,52.8c-0.5,0.8-1,1.2-1,1.6c0,0.4,0.6,1,1,1c0.4,0,1.1-0.6,1.1-0.8
	C110.7,54.1,110.2,53.6,109.6,52.8z M55.3,111.4c-0.4,0-0.8,0-1.3-0.1c0,1.1,0,2.3,0.1,3.4c0.3,0,0.5,0,0.8,0
	C55.1,113.6,55.2,112.5,55.3,111.4z M77.5,123.2c1.2,0.3,2.2,0.6,3.7,1C79.7,121.8,79.2,121.6,77.5,123.2z M33.1,119.4
	c1.2,1.9,2,1.9,3.1,0.2C35.2,119.5,34.3,119.5,33.1,119.4z M111.6,46.3c-1.4,0.1-2.3,0.2-3.2,0.3c0,0.2-0.1,0.4-0.1,0.6
	c0.8,0.2,1.6,0.6,2.3,0.6C110.8,47.9,111.1,47,111.6,46.3z M192.4,154c-0.3-0.2-0.6-0.4-1-0.7c-0.5,0.6-0.9,1.3-1.4,1.9
	c0.4,0.2,1,0.7,1.1,0.6C191.6,155.3,191.9,154.7,192.4,154z M85.4,177.1c-0.1-0.4-0.3-0.7-0.4-1.1c-0.7,0.3-1.4,0.5-2.1,0.8
	c-0.1,0,0.2,0.8,0.4,1.2C84,177.7,84.7,177.4,85.4,177.1z M90.5,124.5c2.1,1.7,2.7,1.6,3.4-0.3C92.9,124.4,91.9,124.4,90.5,124.5z
	 M117.4,50.5c-0.4,0-0.7,0-1.1,0c0,0.7-0.1,1.3,0,2c0,0.1,0.8,0.1,1.2,0.2C117.4,51.9,117.4,51.2,117.4,50.5z M148.1,192.9
	c-0.3,0-0.6,0.1-0.9,0.1c0.1,1,0.3,2.1,0.4,3.1c0.3,0,0.6-0.1,0.9-0.1C148.4,194.9,148.2,193.9,148.1,192.9z"/>
<path d="M117.8,119.1c2-1.7,3.7-3.9,6.7-4.2c0.9-0.1,1.8-1.3,2.7-1.4c2.7-0.3,5.5-0.8,7.8,1.6c1.1,1.1,3,1.2,4.3,2.1
	c0.8,0.5,1.3,1.5,1.8,2.3c0.3,0.4,0.6,0.9,0.8,1.4c0.3,0.8,0.7,1.6,0.8,2.4c0,0.2-0.8,0.5-1.6,1c0.7,0.4,1.5,0.8,2.6,1.5
	c-0.3,1-0.7,2.5-1.1,4c-0.2,0.6-0.3,1.3-0.3,2c0.1,2.7-2.9,6.1-5.5,6.1c-2,0-2,0-2.8,2c-1.1-0.3-2.3-0.6-3.5-0.9
	c-0.5-0.1-1.1-0.1-1.6-0.1c-2.6,0.1-5.4,1-7-2.2c-0.3-0.5-0.8-1.1-1.4-1.2c-3.4-1-3.8-3.6-3.8-6.6c0.1-3,0.2-6,0.3-9
	c0-0.3,0.4-0.6,0.6-0.9c-0.1,0.4-0.1,0.7-0.2,1.1c0.4,0.1,0.9,0.3,1.1,0.1c0.8-0.6,1.4-1.3,2.1-2c-0.1-0.2-0.3-0.4-0.4-0.5
	C119.5,118.1,118.7,118.6,117.8,119.1z"/>
</svg>
