<?xml version="1.0" encoding="utf-8"?>
<!-- Generator: Adobe Illustrator 23.0.1, SVG Export Plug-In . SVG Version: 6.00 Build 0)  -->
<svg version="1.1" id="Layer_1" xmlns="http://www.w3.org/2000/svg" xmlns:xlink="http://www.w3.org/1999/xlink" x="0px" y="0px"
	 viewBox="0 0 300 400" style="enable-background:new 0 0 300 400;" xml:space="preserve">
<style type="text/css">
	.st0{fill:#016374;}
	.st1{fill:#348290;}
	.st2{fill:#F3DAA1;}
	.st3{fill:#74012A;}
	.st4{fill:#F2E3C0;}
	.st5{fill:none;stroke:#348290;stroke-width:3;stroke-miterlimit:10;}
	.st6{fill:none;stroke:#348290;stroke-width:5;stroke-miterlimit:10;}
</style>
<g>
	<ellipse class="st3" cx="150" cy="201" rx="120.3" ry="181.5"/>
	<g>
		<path class="st4" d="M150,22c64.9,0,117.8,80.3,117.8,179S214.9,380,150,380c-64.9,0-117.8-80.3-117.8-179S85.1,22,150,22 M150,17
			C82.2,17,27.2,99.4,27.2,201s55,184,122.8,184s122.8-82.4,122.8-184S217.8,17,150,17L150,17z"/>
	</g>
</g>
<g>
	<g>
		<path class="st4" d="M179.6,85.1c4.3,0,8.5,0,12.8,0c1.4,1,2.8,2.4,4.4,3c6.7,2.7,12.3,6.4,14.1,14.1c0.3,1.5,1,3.2,2.1,4
			c2.4,1.8,2.5,3.9,1.9,6.5c-0.2,0.8,0.3,1.8,0.4,2.7c0.1,0.9,0.3,1.9,0.3,2.8c0,0.5-0.4,1.1-0.4,1.6c-0.1,1.8-1,2.8-2.8,3.3
			c-0.4,0.1-0.9,1-0.8,1.4c0.3,1.8,1,3.5,1.2,5.2c0.6,4.2,1.8,8.5,0,12.7c-0.2,0.6-0.1,1.3,0,2c0.2,1,0.6,1.6,1.8,1.2
			c0.8-0.3,1.7-0.4,2.5-0.5c0.1,0.2,0.2,0.4,0.3,0.6c-0.6,0.4-1.2,1-1.9,1.2c-2.5,0.5-2.7,0.8-1,2.8c2.2,2.7,4.5,5.3,6.9,7.8
			c2.8,2.9,2.5,5.6-0.8,7.9c-0.7,0.4-1.5,1.1-1.6,1.8c-0.3,1.7-0.5,3.5-0.3,5.2c0.2,1.6-0.2,2.7-1.3,3.6c-1.1,0.9-2.3,1.7-3.5,2.6
			c2.3,3.3,2.3,3.3-0.4,6.4c-1.6,1.8-2.2,3.9-1.9,6.3c0.8,6.2-1.6,10.4-7.6,12c-5.1,1.3-10.4,2-15.6,2.7c-2.7,0.4-4.8,1.4-5.7,4
			c-1.3,3.9-2.4,7.8-3.4,11.8c-0.8,3.1-0.3,6,1.1,9c1.8,3.8,3.5,7.7,4.8,11.6c4,11.5,7.9,23.1,11.9,34.7c0.5,1.3,0.3,1.8-1,2.4
			c-7.6,3.8-15.2,7.5-22.6,11.7c-11.4,6.6-22.2,14.2-32.2,22.8c-2.8,2.5-2.9,2.4-5.2-0.5c-3.9-4.9-7.6-10-11.9-14.5
			c-5.6-5.9-11.8-11.3-17.7-16.8c-1.1-1.1-1.4-1.9-0.8-3.4c7.5-16.5,15-33.1,22.4-49.7c0.4-0.8,0.2-1.9,0.1-2.8
			c-0.1-1.5-0.8-3.1-0.4-4.4c1.7-5.2,2.8-10.4,2-15.9c-0.2-1.7,0.5-2.7,2-3.5c0.5-0.3,1.1-1.1,1.1-1.7c-0.1-2.6,0-5.3-0.6-7.9
			c-1.1-5-3.1-9.6-7.7-12.5c-5.1-3.2-8.9-7.5-11.6-12.7c-2.2-4.4-4.1-9-6.1-13.4c-0.5-1.1-1.2-2-1.8-3c-0.2,0.1-0.3,0.1-0.5,0.2
			c0.1,0.9,0.1,1.7,0.2,2.6c0.3,3.3,0.5,6.6,0.8,9.8c0.1,0.9,0,2,0.5,2.8c1.2,2.2,2.7,4.3,4,6.6c1.6,3,2.6,6.1,1.3,9.5
			c-0.6,1.4-1,3.1-0.8,4.6c0.3,2.5,1.3,4.8,1.8,7.3c0.3,1.4,0.4,2.8,0.3,4.2c-0.3,3.1-0.7,6.2-1,9.3c-0.2,1.8-0.2,3.6-0.5,5.4
			c-0.1,0.7-0.6,1.6-1.2,1.8c-2.1,0.9-4.3,1.5-6.6,2.1c-0.5,0.1-1.4-0.2-1.7-0.6c-1.3-2.1-2.9-3.4-5.5-3.3c-3.2,0.1-6.4,0-8.7-2.9
			c-2.2-2.7-5.8-4.7-4.2-9.1c0.6-1.7-0.2-2.6-1.7-3.3c-4-1.9-7.3-4.8-9.9-8.5c-2.8-4-4.2-8.2-2.5-13.1c0.6-1.7,1.4-3.4,1.7-5.1
			c0.3-1.6,0.7-3.6,0.1-5c-2.6-6.3-3.7-12.9-3.1-19.7c0.1-1.1-0.1-2.2,0.1-3.3c0.3-1.5,0.7-3,1.2-4.4c0.8-1.9,2.4-3.7,2.5-5.6
			c0.3-6.3,2.5-11.9,6-16.9c1.8-2.5,4-5.1,6.6-6.5c3.6-2,7.6-3.6,11.9-3c2.4,0.4,4.1,0,4.7-2.7c0.3-1.1,1-1.6,2.2-0.7
			c0.8,0.6,2,0.6,3.1,0.9c0.8,0.2,1.7,0.3,2.4,0.8c2.7,2,2.5,1.8,5.1-0.2c8.6-6.9,18.2-11.9,29.4-13.1c6.9-0.8,13.9-1.5,20.7,0.8
			c1.9,0.6,3.7,1.5,5.3,2.1c1.2-1.8,1.9-3.7,3.3-4.9C174.7,88.5,177.2,86.9,179.6,85.1z M182.7,238.8c0.1,0.1-0.1-0.1-0.4-0.4
			c-5-6.1-11-10.9-17.7-14.9c-8.7-5.2-17.3-10.4-26.1-15.6c-2.7-1.6-4.4-0.8-4.6,2c-0.3,3.9-0.2,7.8-0.3,11.8c0,1.8,0.9,3.1,2.3,4.2
			c2.6,2.1,5.3,4.2,7.7,6.5c5.6,5.5,10.8,11.2,16.5,16.6c4.3,4,5.6,4.6,10.8,2.1c1.2-0.6,2.2-1.9,3.2-2.9
			C176.9,245.2,179.7,242.1,182.7,238.8z M109.5,130.2c0.1-0.4,0.2-0.5,0.1-0.7c-0.5-5.3-1-10.6-1.5-15.8c-0.3-2.8-1.5-5.1-4-6.7
			c-1.2-0.7-1.5-0.8-1.9,0.7c-1,3.5-2,7.2-3.6,10.4c-6.2,11.8-12.6,23.4-19,35.1c-0.5,0.9-0.9,1.8-1.4,2.8c0.8,0.1,1.1-0.1,1.4-0.3
			c3.5-2.4,7.1-4.7,10.5-7.1c0.7-0.5,1.3-1.1,1.6-1.8c2.6-5.4,5.1-10.9,7.6-16.3c0.4-1,0.9-1.3,2-1.1
			C104.1,129.7,106.8,129.9,109.5,130.2z"/>
	</g>
</g>
<g>
	<g>
		<path class="st4" d="M150,30.7c60.4,0,109.5,76.4,109.5,170.3S210.4,371.3,150,371.3c-60.4,0-109.5-76.4-109.5-170.3
			S89.6,30.7,150,30.7 M150,27.7C87.8,27.7,37.5,105.3,37.5,201S87.8,374.3,150,374.3S262.5,296.7,262.5,201S212.2,27.7,150,27.7
			L150,27.7z"/>
	</g>
</g>
<g>
	<circle class="st2" cx="150" cy="351.8" r="9"/>
</g>
</svg>
