<?xml version="1.0" encoding="utf-8"?>
<!-- Generator: Adobe Illustrator 23.0.1, SVG Export Plug-In . SVG Version: 6.00 Build 0)  -->
<svg version="1.1" id="Layer_1" xmlns="http://www.w3.org/2000/svg" xmlns:xlink="http://www.w3.org/1999/xlink" x="0px" y="0px"
	 viewBox="0 0 250 250" style="enable-background:new 0 0 250 250;" xml:space="preserve">
<style type="text/css">
	.st0{fill:#666666;}
	.st1{fill:#999999;}
	.st2{fill:#CCCCCC;}
	.st3{fill:#333333;}
	.st4{opacity:0.7;}
	.st5{fill:#4B2C1C;}
</style>
<path d="M183.5,183.6c2.5,3.5,0.3,4.9-2.1,6.7c-7.9,5.8-15.7,11.7-23.3,17.7c-11,8.7-21.8,17.9-31.8,27.9
	c-2.2,2.2-23.4,3.5-25.6,1.9c-2-1.5-1-3.4-0.6-5c1.1-4.2,2-8.6,3.7-12.6c1.8-4.1,2.6-8.2,2.8-12.2c0.5-9.4-2.5-18.6-5.4-27.8
	c-1.2-3.8-4.1-2.1-6.2-1.7c-5.3,1.1-10.6,1.8-15.9,1.1c-10.3-1.4-14-8-9.9-17.5c2.9-6.6-6.3-9.4-4.6-15.6c0.2-0.8-2.1-2.4-1.8-3
	c3-7.1,3.5-12.7-5.6-15.9c-2.2-0.8-0.2-4.7,1.4-6.5c3.6-4,6-8.8,9-13.2c3.1-4.6,5-8.9-0.4-13.2c-1-0.8,0.3-3.4,0.7-4.6
	c3.5-11.5-1.1-23.3,3-34.6c6.1-17.2,20.6-26.1,36.5-31.6c16.2-5.6,33.4-5.4,50.1-0.5c24.3,7.1,36.6,23.9,36.7,49.4
	c0.1,18.6-5.8,35.8-12.5,52.7C173.7,145.2,169.9,164.6,183.5,183.6z"/>
</svg>
