<?xml version="1.0" encoding="utf-8"?>
<!-- Generator: Adobe Illustrator 23.0.1, SVG Export Plug-In . SVG Version: 6.00 Build 0)  -->
<svg version="1.1" id="Layer_1" xmlns="http://www.w3.org/2000/svg" xmlns:xlink="http://www.w3.org/1999/xlink" x="0px" y="0px"
	 viewBox="0 0 250 250" style="enable-background:new 0 0 250 250;" xml:space="preserve">
<style type="text/css">
	.st0{fill:#666666;}
	.st1{fill:#999999;}
	.st2{fill:#CCCCCC;}
	.st3{fill:#333333;}
	.st4{opacity:0.7;}
	.st5{fill:#4B2C1C;}
</style>
<g>
	<g>
		<path d="M52.6,86.2c0.4,0.3,0.9,0.4,1.4,0.6c0.5-0.5,0.9-1,1.4-1.6c0.7,1.2,2.1,0.5,3.1,1c0.3,0.1,0.9-0.4,1.4-0.6
			c0.4,0.3,0.7,0.9,1.7,0.5c0.4-0.2,1.2,1,1.5-0.1c1.1,0.4,2.1,0.7,3.3,1.1c0.3,0.1,0.7,0.4,1.2,0.5c0.4,0.2,0.8,0.5,1.2,0.4
			c2-0.4,3,1.1,4,2.2c0.5,0.5,0.9,0.7,1.4,0.5c1.1-0.6,1.7,0,2.3,0.9c0.7,1.1,1.5,1.9,2.6,2.6c1.6,1.1,2.8,2.8,3.8,4.4
			c0.8,1.4,1.2,3,1.7,4.6c0.3,0.9,0.3,1.9,0.6,2.7c0.6,1.4,0.2,2.6-0.4,3.8c-0.2,0.5-0.6,1-0.5,1.4c0.3,1.1-0.3,1.8-0.7,2.7
			c-0.4,0.8-1,1.8-0.7,2.5c0.5,1.4-0.1,2.1-0.9,2.9c0,0.7-0.1,1.4-0.2,2c-0.1,0.8-0.4,1.4-1.4,1.3c-0.2,0-0.6,0.6-0.6,0.8
			c0.1,0.9-0.5,1.1-1.1,1.4c-0.6,0.3-1.5,0.8-1.6,1.4c-0.2,0.8-0.5,0.8-1.2,0.8c-1.1,0-2.3-0.2-2.9,1.2c-0.1,0.1-0.3,0.3-0.5,0.3
			c-2.1,0.2-4.1,0.3-6.2,0.4c-0.2,0-0.4-0.1-0.5-0.2c-1.7-1.5-3.6-2.7-5.1-4.6c-1.9-2.4-1.2-4.7-0.8-7.1c0.3-1.5,1.3-2.8,1.9-4.2
			c1-2.1,2.1-4.1,4.6-4.9c0.9-0.3,1.1-1.1,0.5-1.9c-0.3-0.4-0.7-0.8-1-1.2c-0.7-1-2.8-1.9-4-1.9c-1.1,0-2.2-0.2-3.3-0.3
			c-0.8-0.1-1.6-0.1-2.3,0c-0.8,0.1-1.5,0.2-2.3,0.3c-0.5,0.1-1.1,0-1.6,0.1c-0.8,0.3-1.5,0.8-2.2,1.1c-0.8,0.4-1.8,0.6-2.6,1
			c-0.7,0.4-1.5,0.8-0.9,1.9c-1.1-0.4-2.1,0.4-2.2,1.4c0,0.7-0.1,1.7-0.5,2c-1.3,0.9-0.9,2.1-1,3.3c0,0.4,0.1,0.8,0,1.2
			c-0.5,2.6-1.2,5.3,0.2,7.8c0.1,0.2,0.1,0.5,0.1,0.7c0.2,2.3,1.6,3.8,3.2,5.3c1.2,1.1,2.1,2.4,3.7,2.9c0.2,0.1,0.3,0.4,0.4,0.6
			c0.2,0.8,0.8,1.3,1.6,1.4c0.4,0.1,0.8,0.4,1.1,0.7c1.6,1.1,3,2.5,5,2.8c0.1,0,0.3,0.1,0.4,0.2c0.7,0.7,1.4,1.4,2.1,2
			c0.2,0.1,0.4,0.2,0.7,0.2c1.2,0,1.8,0.7,2.4,1.7c0.1,0.3,0.5,0.6,0.8,0.6c1.6,0.1,3.4,0.9,3.9,2c0.7,1.6,2.4,2,3,3.4
			c0.1,0.1,0.1,0.3,0.2,0.5c0.3,0.4,0.5,1,0.8,1.3c1.4,1.5,1.9,3.5,1.1,5.3c-0.2,0.5-0.4,1-0.6,1.4c0,0.1,0,0.2,0,0.4
			c-3.1-0.1-6.1-0.3-9.2-0.4c0,0.3,0,0.7-0.1,1c-0.4,1-0.1,1.7,0.6,2.4c1.2,1.2,2.3,2.5,3.4,3.8c1.1,1.3,2,2.7,3.6,3.4
			c0.3,0.1,0.5,0.4,0.7,0.6c0.6,0.8,1.1,1.7,1.8,2.4c1.1,1.2,2.7,2.2,3.5,3.5c1.2,1.9,3.1,3.3,3.7,5.7c0.5,2,2.1,3.8,2.8,5.8
			c0.5,1.2,0.5,2.7,0.5,4.1c0,1.6-0.4,3.2-0.4,4.8c0,2,0.3,3.9,0.3,5.9c0,0.9-0.2,2-0.6,2.8c-0.6,1-1,1.9-0.8,3.1
			c0.1,0.4-0.2,1.1-0.4,1.2c-1.4,0.7-1.7,2.1-2.1,3.4c-0.2,0.6-0.2,1-0.9,1.1c-0.4,0.1-0.9,0.8-1,1.3c-0.2,1.4-1.2,2.3-2.1,3.1
			c-0.5,0.4-0.8,0.6-0.7,1.3c0.2,0.8-0.9,2.1-1.7,2.1c-1.3-0.1-1.7,0.4-1.9,1.7c0,0.4-0.6,1-0.7,1c-1.2-0.3-1.7,0.7-2.4,1.3
			c-0.4,0.3-0.9,0.4-1.3,0.6c-0.4,0.2-0.9,0.5-1.1,0.9c-0.3,0.7-0.6,1-1.4,0.9c-0.8,0-1.9-0.5-2.1,1.1c-0.1,0.5-1.4,1.1-2.2,1.2
			c-1.6,0.2-3.3,0.1-5,0.3c-0.8,0.1-1.5,0.5-2.3,0.7c-0.7,0.2-1.4,0.2-2.2,0.3c-0.8,0.1-1.8-0.1-2.5,0.3c-1,0.6-1.7,0.5-2.6-0.1
			c-0.6-0.5-1.4-0.8-2.2-0.2c-0.3,0.2-1.2,0.4-1.3,0.2c-0.7-1.2-2-0.9-2.9-1.1c-2.2-0.4-3.6-1.7-5.1-3.1c-0.5-0.5-0.8-1.1-1.3-1.6
			c-2.9-2.7-4.3-6.2-4.9-10c-0.3-2-0.4-3.8,0.1-5.8c0.5-2,0.6-4.1,1-6.2c0.2-0.8,0.8-1.5,1.2-2.3c-0.1,0.7-0.5,1.5,0.6,2
			c0.5-0.9,0-1.5-0.6-2c0.6-1.6,2.3-0.7,3.5-1.3c-0.6-0.3-0.9-0.6-1.5-0.9c0.7,0,1.1,0.1,1.6,0.1c-0.2-0.4-0.4-0.7-0.5-1
			c1.1-0.7,2.2-1.4,3.3-2c0,0.1,0.1,0.1,0.1,0.2c-0.2,0.1-0.3,0.3-0.6,0.6c0.6,0.2,1.4,0.7,1.5,0.6c0.6-0.6,1-1.4,1.6-2.3
			c0.7,0.2,1.6,0.5,2.7,0.1c2-0.7,3.2,0.1,3.9,2.2c0.2,0.5,0.5,0.9,0.9,1.2c1.1,0.9,1.4,2.3,1.2,3.7c-0.2,1.1-1.4,2.2-0.3,3.5
			c0,0,0,0.2,0,0.2c-0.8,1.6-1.3,3.5-2.5,4.8c-1.2,1.2-3.1,1.8-4.7,2.6c-1.4,0.6-1.6,1.1-0.6,2.3c0.5,0.6,1.1,1.2,1.4,2
			c0.6,1.1,1.6,1.4,2.7,1.3c0.6-0.1,1.1-0.3,1.7-0.2c2,0.4,3.9,0.4,5.5-1c-0.2,0.2-0.3,0.4-0.6,0.9c0.8,0.1,1.5,0.5,1.8,0.2
			c0.4-0.3,0.4-1.1,0.5-1.7c-0.1-0.1-0.1-0.3-0.2-0.4c1.2,0,2.4,0.1,3.6,0.1c-0.3-1.3,0.7-1.7,1.8-2.3c0.8-0.5,1.5-1.3,2.2-1.9
			c-0.1-0.1-0.2-0.1-0.2-0.2c-0.2,0-0.3,0.1-0.2,0c0.3-1,0.9-2.2,1.1-3.3c0.2-1.5,0.3-3,0.2-4.5c-0.1-1.6,0.1-3.4-1.1-4.7
			c-0.9-1-1.3-1.9-1.2-3.1c0-0.3-0.3-0.6-0.5-0.9c-0.2,0.3-0.5,0.7-0.6,1c-0.1,0.3,0.2,0.7,0.3,1.3c-0.8-0.2-1.5-0.2-1.9-0.5
			c-1.4-1.2-3.1-1.7-4.8-2.2c-2.7-0.8-3.9-3.5-5.9-5.3c-1-0.9-1.5-2.5-2.2-3.7c-0.3-0.5-0.5-1-0.7-1.5c-0.5-1.8-1-3.6-1.6-5.4
			c-0.1-0.4-0.7-0.8-1.1-0.9c-0.2-0.1-0.6,0.5-0.9,0.9c-0.4,0.6-0.7,1.3-1.1,1.8c-0.4,0.5-1.3,0.8-1.5,1.3c-0.3,1.1-1,1.6-1.8,2.1
			c-0.4,0.3-0.6,0.7-0.8,1.1c-0.5,0.9-1.1,1.4-2.1,1.1c-0.5-0.1-1-0.1-1.5,0c-2.2,0.6-4.1-1-4-3.3c0-0.2,0.1-0.3,0-0.5
			c-0.9-2.5,0.7-4.5,1.2-6.8c0.2-0.9,0.6-1.7,0.9-2.5c0.3-0.9,0.6-1.8,0.8-2.5c0-0.7-0.3-1.3-0.1-1.7c0.7-1.4,0.7-2.8,0.4-4.3
			c-0.2-1.3-0.7-2.5-1-3.7c-0.2-0.9-0.4-1.8-0.7-2.7c-0.6-1.7-1.4-3.4-2-5.1c-0.9-2.4-1.3-4.9-2.3-7.3c-0.6-1.4-1.2-2.8-1.7-4.2
			c-0.8-2.3-1.7-4.5-2.3-6.8c-0.5-1.9-0.5-3.9-0.9-5.9c-0.4-2.4,0.1-4.8,0.5-7.1c0.2-1,0.4-2,0.6-3c0.5-3.1,1.2-6.3,2.2-9.3
			c0.7-2,1.4-4.1,3.1-5.7c1.7-1.6,2.7-3.9,4.9-5c0.2-0.1,0.3-0.5,0.5-0.8c0.2-0.4,0.3-0.9,0.6-1.3c0.5-0.5,1.1-1,1.5-1.3
			c0.4,0,0.9,0.1,0.9-0.1c0.6-1.1,1.4-1.8,2.5-2.4c1.3-0.7,2.4-1.7,3.4-2.5c0.1,0.2,0.1,0.7,0.4,0.8c0.2,0.1,0.9-0.1,0.9-0.3
			c0.1-0.4,0-0.9-0.1-1.5c0.2,0,0.8-0.2,1.1-0.1c1.2,0.8,1.4-0.1,1.6-1c0.9-0.2,1.9-0.7,2.7-0.5c0.9,0.2,1.7,0,2.2-0.5
			c0.7-0.7,1.5-0.8,2.4-0.8c0.5,0,1,0,1.6-0.1C52.2,85.5,52,85.8,52.6,86.2z M53.5,174.5c0.1,0.3,0.3,0.6,0.5,0.8
			c0.4,0.4,0.9,0.8,1.1,1.3c0.7,1.8,2.5,2.6,3.6,4c0.6,0.9,1.3,1.7,1.9,2.6c0.5,0.6,1,1.4,1.6,1.8c1.4,0.9,1.6,2.7,3,3.6
			c1.2,0.8,1.8,2.3,2.7,3.4c0.4,0.5,0.8,1.1,1.1,1.7c1.3,2.2,1.7,4.6,1.6,7.1c0,0.3-0.2,0.6-0.3,0.9c-0.2,0.5-0.5,0.9-0.8,1.4
			c-0.7,1.3-1.3,2.5-2,3.8c-0.4,0.9-0.8,1.8-1.4,2.6c-0.8,1.2-1.8,2.2-2.8,3.3c-0.3,0.3-0.8,0.6-0.8,0.9c-0.1,0.6,0.1,1.2,0.2,1.9
			c0.5-0.1,1.1-0.1,1.6-0.4c2-1.3,3.8-2.8,4.9-5.1c0.5-1,1.4-1.9,1.9-2.9c0.7-1.3,1.1-2.8,1.8-4.1c0.7-1.3,1-2.7,0.7-4.1
			c-0.4-1.9-0.9-3.7-1.4-5.6c-0.7-2.7-2.9-4.3-4.6-6.2c-0.7-0.8-1.1-1.8-1.7-2.6c-1.2-1.5-2.5-2.8-3.7-4.3c-0.9-1.1-2.1-2-2.4-3.6
			c0-0.2-0.4-0.4-0.6-0.5c-2.4-1-3.5-3.1-4.9-5.1c-0.8-1.1-1.7-2.2-2.5-3.3c-1.2-1.7-2.4-3.5-3.6-5.3c-0.5-0.8-1.1-1.4-1.6-2.2
			c-0.4-0.7-0.8-1.5-1.2-2.4c-0.6,0.4-1,0.1-1.2-1c-0.2-0.9-0.8-1.7-1.2-2.5c-0.7-1.5-1.4-3-2.1-4.5c0.5,0,0.8-0.1,1.1-0.1
			c-0.1-0.2-0.2-0.4-0.2-0.4c-1.2,0-1.5-0.9-1.9-1.8c-0.5-1.1-1.1-2.2-1.5-3.3c-0.3-0.7-0.6-1.4-0.6-2.2c-0.2-2.2-0.7-4.4-1.2-6.5
			c-0.5-2-0.6-4-1-6c-0.1-0.5-0.4-0.9-0.5-1.3c-0.2-1.5-0.6-2.9-0.2-4.5c0.4-1.5,0.1-3.1,0.2-4.6c0.1-0.7,0.3-1.4,0.5-2.3
			c-0.6-0.2-0.3-0.8,0-1.4c0.1-0.2,0.2-0.5,0.2-0.8c0-2.3,1.3-4,2.4-5.8c0.6-0.9,1.1-2.1,1.7-3c0.8-1.5,2.5-2.5,3.7-3.8
			c1.1-1.1,2.1-2.1,3.1-3.2c0.2-0.2,0.2-0.8,0.1-1.1c-0.1-0.2-0.7-0.3-1-0.1c-1,0.4-1.9,0.8-2.8,1.3c-2,1.1-3,3.1-4.7,4.5
			c-0.1,0.1-0.1,0.2-0.2,0.3c-2.2,0.7-2.2,3-3.4,4.5c-0.6,0.8-1.1,1.6-1.7,2.5c-0.2,0.3-0.6,0.8-0.4,1.1c0.5,1.1-0.1,1.7-0.8,2.4
			c-0.3,0.3-0.2,0.9-0.3,1.4c-0.1,0.9-0.2,1.7-0.3,2.6c0,0.5-0.1,0.9-0.1,1.4c0,1.1-0.2,2.3,0,3.4c0.4,2.9,0.9,5.9,1.4,8.8
			c0.1,1,0.1,2,0.2,3c0.6,3.4,1.2,6.8,2.1,10.1c0.5,1.8,1.7,3.3,2.5,5c0.5,1.1,0.7,2.3,1.2,3.3c1.2,2.3,2.5,4.5,3.7,6.8
			c0.8,1.5,1.5,3.1,2.3,4.5c0.4,0.7,1.1,1.4,1.8,1.9c1.6,1.2,2.6,2.8,3.2,4.7c0.1,0.2-0.2,0.6-0.3,0.9
			C51.7,171.8,53,172.7,53.5,174.5z M75.6,177.9c-0.3-0.7-1-1.2-1.5-1.8c-0.1,0.3-0.4,0.8-0.3,0.9c0.6,0.6,1.1,1.1,0.6,2
			c-0.1,0.1,0.5,0.5,0.9,1C75.5,178.9,75.8,178.3,75.6,177.9z M50.1,217.9c-1.4,0.7-1.6,1.5-0.9,2.7c0.4-0.1,0.8-0.1,1.2-0.2
			c0.3,0,0.6-0.1,1-0.2c-0.2-0.3-0.3-0.8-0.6-0.9c-0.3-0.2-0.7-0.1-1.2-0.1C49.7,218.7,49.9,218.4,50.1,217.9z M33.9,159.9
			c0.9,1.1,1.8,2.3,2.7,3.4C36.5,161.2,35.3,159.9,33.9,159.9z M33.4,212c-0.2-0.3-0.9-0.8-1.1-0.7c-1,0.8,0,1.4,0.2,2.4
			C33.3,213.2,33.9,212.8,33.4,212z M51,144c0-0.1-0.4-0.6-0.5-0.6c-1.1,0-0.8,1-1.3,1.7C50.4,145.3,50.8,144.8,51,144z M70.7,150.6
			c0,0.2,0.3,0.5,0.5,0.7c0.5-0.4,0.9-0.8,1.4-1.2c-0.1-0.1-0.2-0.3-0.4-0.4C71.5,149.7,70.7,149.6,70.7,150.6z M46.1,133.7
			c0.1,0.1,0.4,0,0.5,0c0.1,0,0.1-0.4,0.1-0.4c-0.7-0.5-1.2-1.3-2.6-0.9C44.9,132.9,45.5,133.3,46.1,133.7z M63.1,160
			c0-0.7,0.1-1.4,0.1-2.3C61.8,159,61.8,159.4,63.1,160z M47.3,179.9c-1.6,0.1-1.5,1.2-1.7,2.1c0.1,0.1,0.2,0.1,0.3,0.2
			C46.4,181.5,46.8,180.8,47.3,179.9z M39.1,165.7c0.2,0.3,0.5,0.6,0.7,0.9c0.3,0.3,0.6,0.5,0.9,0.8C40.5,165.5,40,165.2,39.1,165.7
			z M49.8,100.1c0.9,0,1.5,0,2.1,0.1c0-0.2,0-0.3,0-0.5C51.2,99.2,50.6,98.8,49.8,100.1z M77,99.6c0.2-0.1,0.5-0.3,0.5-0.4
			c-0.2-0.4-0.4-0.8-0.7-1.3c-0.2,0.1-0.4,0.2-0.6,0.4C76.5,98.8,76.8,99.2,77,99.6z M20.3,127.1c0.8,1.1,1.9,1.4,2.5,0.6
			C21.9,127.5,21.1,127.3,20.3,127.1z M78.5,182.1c0,0,0.2-0.3,0.4-0.5c-0.4-0.3-0.9-0.6-1.3-0.9c-0.1,0.2-0.3,0.4-0.4,0.6
			C77.6,181.6,78,181.9,78.5,182.1z M66.3,124.2c0.1,0.1,0.5-0.1,0.8-0.2c-0.3-0.4-0.6-0.8-0.8-1.2c-0.2,0.1-0.4,0.2-0.6,0.3
			C65.9,123.5,66,123.9,66.3,124.2z M64.1,152.1c-0.5-0.1-0.9-0.2-1.5-0.3c0.3,0.7,0.4,1.2,0.6,1.6c0.1,0,0.2,0,0.3,0
			C63.6,153,63.8,152.6,64.1,152.1z M61.1,224.7c-0.3-0.1-0.8,0.3-1.4,0.5c0.8,0.3,1.4,0.5,1.9,0.7c0.1-0.1,0.2-0.2,0.3-0.2
			C61.6,225.3,61.4,224.8,61.1,224.7z M23.8,123.2c0,0.2-0.1,0.3-0.1,0.5c0.6,0.2,1.2,0.3,2.1,0.6C25.2,123,24.5,123.2,23.8,123.2z
			 M64.1,113.6c0,0.5-0.1,1,0,1.1c0.4,0.2,0.9,0.2,1.3,0.3c0-0.2,0.1-0.3,0.1-0.5C65.1,114.2,64.8,114,64.1,113.6z M67,168.9
			c0,0-0.2-0.4-0.3-0.6c-0.4,0.3-0.7,0.6-1.1,0.9c0.1,0.2,0.3,0.3,0.4,0.5C66.3,169.4,66.7,169.2,67,168.9z M59.8,148.9
			c0,0.1,0,0.3,0,0.4c0.4,0.1,0.8,0.3,1.1,0.2c0.2-0.1,0.4-0.5,0.6-0.7c-0.1-0.1-0.2-0.1-0.3-0.2C60.7,148.6,60.3,148.7,59.8,148.9z
			 M22.2,135.2c0.2-0.4,0.4-0.8,0.4-0.9c-0.3-0.4-0.7-0.7-1-1c-0.1,0.1-0.2,0.3-0.3,0.4C21.5,134.2,21.8,134.6,22.2,135.2z
			 M74.7,184.2c0,0.2,0.1,0.6,0.1,0.6c0.4,0,0.9-0.1,1.3-0.1c0-0.2,0-0.4-0.1-0.6C75.6,184.1,75.2,184.1,74.7,184.2z M47.5,174.7
			c0,0-0.3,0.1-0.5,0.1c0.1,0.4,0.3,0.9,0.4,1.3c0.2-0.1,0.4-0.1,0.6-0.2C47.8,175.6,47.7,175.1,47.5,174.7z"/>
		<path d="M229.3,53.9c-0.3,0.4-0.4,0.9-0.6,1.4c0.5,0.5,1,0.9,1.6,1.4c-1.2,0.7-0.5,2.1-1,3.1c-0.1,0.3,0.4,0.9,0.6,1.4
			c-0.3,0.4-0.9,0.7-0.5,1.7c0.2,0.4-1,1.2,0.1,1.5c-0.4,1.1-0.7,2.1-1.1,3.3c-0.1,0.3-0.4,0.7-0.5,1.2c-0.2,0.4-0.5,0.8-0.4,1.2
			c0.4,2-1.1,3-2.2,4c-0.5,0.5-0.7,0.9-0.5,1.4c0.6,1.1,0,1.7-0.9,2.3c-1.1,0.7-1.9,1.5-2.6,2.6c-1.1,1.6-2.8,2.8-4.4,3.8
			c-1.4,0.8-3,1.2-4.6,1.7c-0.9,0.3-1.9,0.3-2.7,0.6c-1.4,0.6-2.6,0.2-3.8-0.4c-0.5-0.2-1-0.6-1.4-0.5c-1.1,0.3-1.8-0.3-2.7-0.7
			c-0.8-0.4-1.8-1-2.5-0.7c-1.4,0.5-2.1-0.1-2.9-0.9c-0.7,0-1.4-0.1-2-0.2c-0.8-0.1-1.4-0.4-1.3-1.4c0-0.2-0.6-0.6-0.8-0.6
			c-0.9,0.1-1.1-0.5-1.4-1.1c-0.3-0.6-0.8-1.5-1.4-1.6c-0.8-0.2-0.8-0.5-0.8-1.2c0-1.1,0.2-2.3-1.2-2.9c-0.1-0.1-0.3-0.3-0.3-0.5
			c-0.2-2.1-0.3-4.1-0.4-6.2c0-0.2,0.1-0.4,0.2-0.5c1.5-1.7,2.7-3.6,4.6-5.1c2.4-1.9,4.7-1.2,7.1-0.8c1.5,0.3,2.8,1.3,4.2,1.9
			c2.1,1,4.1,2.1,4.9,4.6c0.3,0.9,1.1,1.1,1.9,0.5c0.4-0.3,0.8-0.7,1.2-1c1-0.7,1.9-2.8,1.9-4c0-1.1,0.2-2.2,0.3-3.3
			c0.1-0.8,0.1-1.6,0-2.3c-0.1-0.8-0.2-1.5-0.3-2.3c-0.1-0.5,0-1.1-0.1-1.6c-0.3-0.8-0.8-1.5-1.1-2.2c-0.4-0.8-0.6-1.8-1-2.6
			c-0.4-0.7-0.8-1.5-1.9-0.9c0.4-1.1-0.4-2.1-1.4-2.2c-0.7,0-1.7-0.1-2-0.5c-0.9-1.3-2.1-0.9-3.3-1c-0.4,0-0.8,0.1-1.2,0
			c-2.6-0.5-5.3-1.2-7.8,0.2c-0.2,0.1-0.5,0.1-0.7,0.1c-2.3,0.2-3.8,1.6-5.3,3.2c-1.1,1.2-2.4,2.1-2.9,3.7c-0.1,0.2-0.4,0.3-0.6,0.4
			c-0.8,0.2-1.3,0.8-1.4,1.6c-0.1,0.4-0.4,0.8-0.7,1.1c-1.1,1.6-2.5,3-2.8,5c0,0.1-0.1,0.3-0.2,0.4c-0.7,0.7-1.4,1.4-2,2.1
			c-0.1,0.2-0.2,0.4-0.2,0.7c0,1.2-0.7,1.8-1.7,2.4c-0.3,0.1-0.6,0.5-0.6,0.8c-0.1,1.6-0.9,3.4-2,3.9c-1.6,0.7-2,2.4-3.4,3
			c-0.1,0.1-0.3,0.1-0.5,0.2c-0.4,0.3-1,0.5-1.3,0.8c-1.5,1.4-3.5,1.9-5.3,1.1c-0.5-0.2-1-0.4-1.4-0.6c-0.1,0-0.2,0-0.4,0
			c0.1-3.1,0.3-6.1,0.4-9.2c-0.3,0-0.7,0-1-0.1c-1-0.4-1.7-0.1-2.4,0.6c-1.2,1.2-2.5,2.3-3.8,3.4c-1.3,1.1-2.7,2-3.4,3.6
			c-0.1,0.3-0.4,0.5-0.6,0.7c-0.8,0.6-1.7,1.1-2.4,1.8c-1.2,1.1-2.2,2.7-3.5,3.5c-1.9,1.2-3.3,3.1-5.7,3.7c-2,0.5-3.8,2.1-5.8,2.8
			c-1.2,0.5-2.7,0.5-4.1,0.5c-1.6,0-3.2-0.4-4.8-0.4c-2,0-3.9,0.3-5.9,0.3c-0.9,0-2-0.2-2.8-0.6c-1-0.6-1.9-1-3.1-0.8
			c-0.4,0.1-1.1-0.2-1.2-0.4c-0.7-1.4-2.1-1.7-3.4-2.1c-0.6-0.2-1-0.2-1.1-0.9c-0.1-0.4-0.8-0.9-1.3-1c-1.4-0.2-2.3-1.2-3.1-2.1
			c-0.4-0.5-0.6-0.8-1.3-0.7c-0.8,0.2-2.1-0.9-2.1-1.7c0.1-1.3-0.4-1.7-1.7-1.9c-0.4,0-1-0.6-1-0.7c0.3-1.2-0.7-1.7-1.3-2.4
			c-0.3-0.4-0.4-0.9-0.6-1.3c-0.2-0.4-0.5-0.9-0.9-1.1c-0.7-0.3-1-0.6-0.9-1.4c0-0.8,0.5-1.9-1.1-2.1c-0.5-0.1-1.1-1.4-1.2-2.2
			c-0.2-1.6-0.1-3.3-0.3-5c-0.1-0.8-0.5-1.5-0.7-2.3c-0.2-0.7-0.2-1.4-0.3-2.2c-0.1-0.8,0.1-1.8-0.3-2.5c-0.6-1-0.5-1.7,0.1-2.6
			c0.5-0.6,0.8-1.4,0.2-2.2c-0.2-0.3-0.4-1.2-0.2-1.3c1.2-0.7,0.9-2,1.1-2.9c0.4-2.2,1.7-3.6,3.1-5.1c0.5-0.5,1.1-0.8,1.6-1.3
			c2.7-2.9,6.2-4.3,10-4.9c2-0.3,3.8-0.4,5.8,0.1c2,0.5,4.1,0.6,6.2,1c0.8,0.2,1.5,0.8,2.3,1.2c-0.7-0.1-1.5-0.5-2,0.6
			c0.9,0.5,1.5,0,2-0.6c1.6,0.6,0.7,2.3,1.3,3.5c0.3-0.6,0.6-0.9,0.9-1.5c0,0.7-0.1,1.1-0.1,1.6c0.4-0.2,0.7-0.4,1-0.5
			c0.7,1.1,1.4,2.2,2,3.3c-0.1,0-0.1,0.1-0.2,0.1c-0.1-0.2-0.3-0.3-0.6-0.6c-0.2,0.6-0.7,1.4-0.6,1.5c0.6,0.6,1.4,1,2.3,1.6
			c-0.2,0.7-0.5,1.6-0.1,2.7c0.7,2-0.1,3.2-2.2,3.9c-0.5,0.2-0.9,0.5-1.2,0.9c-0.9,1.1-2.3,1.4-3.7,1.2c-1.1-0.2-2.2-1.4-3.5-0.3
			c0,0-0.2,0-0.2,0c-1.6-0.8-3.5-1.3-4.8-2.5c-1.2-1.2-1.8-3.1-2.6-4.7c-0.6-1.4-1.1-1.6-2.3-0.6c-0.6,0.5-1.2,1.1-2,1.4
			c-1.1,0.6-1.4,1.6-1.3,2.7c0.1,0.6,0.3,1.1,0.2,1.7c-0.4,2-0.4,3.9,1,5.5c-0.2-0.2-0.4-0.3-0.9-0.6c-0.1,0.8-0.5,1.5-0.2,1.8
			c0.3,0.4,1.1,0.4,1.7,0.5c0.1-0.1,0.3-0.1,0.4-0.2c0,1.2-0.1,2.4-0.1,3.6c1.3-0.3,1.7,0.7,2.3,1.8c0.5,0.8,1.3,1.5,1.9,2.2
			c0.1-0.1,0.1-0.2,0.2-0.2c0-0.2-0.1-0.3,0-0.2c1,0.3,2.2,0.9,3.3,1.1c1.5,0.2,3,0.3,4.5,0.2c1.6-0.1,3.4,0.1,4.7-1.1
			c1-0.9,1.9-1.3,3.1-1.2c0.3,0,0.6-0.3,0.9-0.5c-0.3-0.2-0.7-0.5-1-0.6c-0.3-0.1-0.7,0.2-1.3,0.3c0.2-0.8,0.2-1.5,0.5-1.9
			c1.2-1.4,1.7-3.1,2.2-4.8c0.8-2.7,3.5-3.9,5.3-5.9c0.9-1,2.5-1.5,3.7-2.2c0.5-0.3,1-0.5,1.5-0.7c1.8-0.5,3.6-1,5.4-1.6
			c0.4-0.1,0.8-0.7,0.9-1.1c0.1-0.2-0.5-0.6-0.9-0.9c-0.6-0.4-1.3-0.7-1.8-1.1c-0.5-0.4-0.8-1.3-1.3-1.5c-1.1-0.3-1.6-1-2.1-1.8
			c-0.3-0.4-0.7-0.6-1.1-0.8c-0.9-0.5-1.4-1.1-1.1-2.1c0.1-0.5,0.1-1,0-1.5c-0.6-2.2,1-4.1,3.3-4c0.2,0,0.3,0.1,0.5,0
			c2.5-0.9,4.5,0.7,6.8,1.2c0.9,0.2,1.7,0.6,2.5,0.9c0.9,0.3,1.8,0.6,2.5,0.8c0.7,0,1.3-0.3,1.7-0.1c1.4,0.7,2.8,0.7,4.3,0.4
			c1.3-0.2,2.5-0.7,3.7-1c0.9-0.2,1.8-0.4,2.7-0.7c1.7-0.6,3.4-1.4,5.1-2c2.4-0.9,4.9-1.3,7.3-2.3c1.4-0.6,2.8-1.2,4.2-1.7
			c2.3-0.8,4.5-1.7,6.8-2.3c1.9-0.5,3.9-0.5,5.9-0.9c2.4-0.4,4.8,0.1,7.1,0.5c1,0.2,2,0.4,3,0.6c3.1,0.5,6.3,1.2,9.3,2.2
			c2,0.7,4.1,1.4,5.7,3.1c1.6,1.7,3.9,2.7,5,4.9c0.1,0.2,0.5,0.3,0.8,0.5c0.4,0.2,0.9,0.3,1.3,0.6c0.5,0.5,1,1.1,1.3,1.5
			c0,0.4-0.1,0.9,0.1,0.9c1.1,0.6,1.8,1.4,2.4,2.5c0.7,1.3,1.7,2.4,2.5,3.4c-0.2,0.1-0.7,0.1-0.8,0.4c-0.1,0.2,0.1,0.9,0.3,0.9
			c0.4,0.1,0.9,0,1.5-0.1c0,0.2,0.2,0.8,0.1,1.1c-0.8,1.2,0.1,1.4,1,1.6c0.2,0.9,0.7,1.9,0.5,2.7c-0.2,0.9,0,1.7,0.5,2.2
			c0.7,0.7,0.8,1.5,0.8,2.4c0,0.5,0,1,0.1,1.6C230,53.5,229.7,53.2,229.3,53.9z M141,54.7c-0.3,0.1-0.6,0.3-0.8,0.5
			c-0.4,0.4-0.8,0.9-1.3,1.1c-1.8,0.7-2.6,2.5-4,3.6c-0.9,0.6-1.7,1.3-2.6,1.9c-0.6,0.5-1.4,1-1.8,1.6c-0.9,1.4-2.7,1.6-3.6,3
			c-0.8,1.2-2.3,1.8-3.4,2.7c-0.5,0.4-1.1,0.8-1.7,1.1c-2.2,1.3-4.6,1.7-7.1,1.6c-0.3,0-0.6-0.2-0.9-0.3c-0.5-0.2-0.9-0.5-1.4-0.8
			c-1.3-0.7-2.5-1.3-3.8-2c-0.9-0.4-1.8-0.8-2.6-1.4c-1.2-0.8-2.2-1.8-3.3-2.8c-0.3-0.3-0.6-0.8-0.9-0.8c-0.6-0.1-1.2,0.1-1.9,0.2
			c0.1,0.5,0.1,1.1,0.4,1.6c1.3,2,2.8,3.8,5.1,4.9c1,0.5,1.9,1.4,2.9,1.9c1.3,0.7,2.8,1.1,4.1,1.8c1.3,0.7,2.7,1,4.1,0.7
			c1.9-0.4,3.7-0.9,5.6-1.4c2.7-0.7,4.3-2.9,6.2-4.6c0.8-0.7,1.8-1.1,2.6-1.7c1.5-1.2,2.8-2.5,4.3-3.7c1.1-0.9,2-2.1,3.6-2.4
			c0.2,0,0.4-0.4,0.5-0.6c1-2.4,3.1-3.5,5.1-4.9c1.1-0.8,2.2-1.7,3.3-2.5c1.7-1.2,3.5-2.4,5.3-3.6c0.8-0.5,1.4-1.1,2.2-1.6
			c0.7-0.4,1.5-0.8,2.4-1.2c-0.4-0.6-0.1-1,1-1.2c0.9-0.2,1.7-0.8,2.5-1.2c1.5-0.7,3-1.4,4.5-2.1c0,0.5,0.1,0.8,0.1,1.1
			c0.2-0.1,0.4-0.2,0.4-0.2c0-1.2,0.9-1.5,1.8-1.9c1.1-0.5,2.2-1.1,3.3-1.5c0.7-0.3,1.4-0.6,2.2-0.6c2.2-0.2,4.4-0.7,6.5-1.2
			c2-0.5,4-0.6,6-1c0.5-0.1,0.9-0.4,1.3-0.5c1.5-0.2,2.9-0.6,4.5-0.2c1.5,0.4,3.1,0.1,4.6,0.2c0.7,0.1,1.4,0.3,2.3,0.5
			c0.2-0.6,0.8-0.3,1.4,0c0.2,0.1,0.5,0.2,0.8,0.2c2.3,0,4,1.3,5.8,2.4c0.9,0.6,2.1,1.1,3,1.7c1.5,0.8,2.5,2.5,3.8,3.7
			c1.1,1.1,2.1,2.1,3.2,3.1c0.2,0.2,0.8,0.2,1.1,0.1c0.2-0.1,0.3-0.7,0.1-1c-0.4-1-0.8-1.9-1.3-2.8c-1.1-2-3.1-3-4.5-4.7
			c-0.1-0.1-0.2-0.1-0.3-0.2c-0.7-2.2-3-2.2-4.5-3.4c-0.8-0.6-1.6-1.1-2.5-1.7c-0.3-0.2-0.8-0.6-1.1-0.4c-1.1,0.5-1.7-0.1-2.4-0.8
			c-0.3-0.3-0.9-0.2-1.4-0.3c-0.9-0.1-1.7-0.2-2.6-0.3c-0.5,0-0.9-0.1-1.4-0.1c-1.1,0-2.3-0.2-3.4,0c-2.9,0.4-5.9,0.9-8.8,1.4
			c-1,0.1-2,0.1-3,0.2c-3.4,0.6-6.8,1.2-10.1,2.1c-1.8,0.5-3.3,1.7-5,2.5c-1.1,0.5-2.3,0.7-3.3,1.2c-2.3,1.2-4.5,2.5-6.8,3.7
			c-1.5,0.8-3.1,1.5-4.5,2.3c-0.7,0.4-1.4,1.1-1.9,1.8c-1.2,1.6-2.8,2.6-4.7,3.2c-0.2,0.1-0.6-0.2-0.9-0.3
			C143.7,52.9,142.7,54.2,141,54.7z M137.6,76.8c0.7-0.3,1.2-1,1.8-1.5c-0.3-0.1-0.8-0.4-0.9-0.3c-0.6,0.6-1.1,1.1-2,0.6
			c-0.1-0.1-0.5,0.5-1,0.9C136.5,76.7,137.2,77,137.6,76.8z M97.6,51.3c-0.7-1.4-1.5-1.6-2.7-0.9c0.1,0.4,0.1,0.8,0.2,1.2
			c0,0.3,0.1,0.6,0.2,1c0.3-0.2,0.8-0.3,0.9-0.6c0.2-0.3,0.1-0.7,0.1-1.2C96.7,51,97.1,51.1,97.6,51.3z M155.6,35.1
			c-1.1,0.9-2.3,1.8-3.4,2.7C154.3,37.7,155.6,36.6,155.6,35.1z M103.5,34.6c0.3-0.2,0.8-0.9,0.7-1.1c-0.8-1-1.4,0-2.4,0.2
			C102.3,34.5,102.7,35.2,103.5,34.6z M171.5,52.3c0.1,0,0.6-0.4,0.6-0.5c0-1.1-1-0.8-1.7-1.3C170.1,51.6,170.7,52,171.5,52.3z
			 M164.9,71.9c-0.2,0-0.5,0.3-0.7,0.5c0.4,0.5,0.8,0.9,1.2,1.4c0.1-0.1,0.3-0.2,0.4-0.4C165.7,72.7,165.9,72,164.9,71.9z
			 M181.8,47.3c-0.1,0.1,0,0.4,0,0.5c0,0.1,0.4,0.1,0.4,0.1c0.5-0.7,1.3-1.2,0.9-2.6C182.6,46.2,182.2,46.7,181.8,47.3z M155.5,64.4
			c0.7,0,1.4,0.1,2.3,0.1C156.4,63,156.1,63,155.5,64.4z M135.5,48.6c-0.1-1.6-1.2-1.5-2.1-1.7c-0.1,0.1-0.1,0.2-0.2,0.3
			C134,47.6,134.7,48,135.5,48.6z M149.8,40.3c-0.3,0.2-0.6,0.5-0.9,0.7c-0.3,0.3-0.5,0.6-0.8,0.9C149.9,41.7,150.3,41.3,149.8,40.3
			z M215.4,51c0,0.9,0,1.5-0.1,2.1c0.2,0,0.3,0,0.5,0C216.3,52.5,216.7,51.8,215.4,51z M215.8,78.3c0.1,0.2,0.3,0.5,0.4,0.5
			c0.4-0.2,0.8-0.4,1.3-0.7c-0.1-0.2-0.2-0.4-0.4-0.6C216.7,77.7,216.3,78,215.8,78.3z M188.4,21.5c-1.1,0.8-1.4,1.9-0.6,2.5
			C188,23.1,188.2,22.3,188.4,21.5z M133.4,79.7c0,0,0.3,0.2,0.5,0.4c0.3-0.4,0.6-0.9,0.9-1.3c-0.2-0.1-0.4-0.3-0.6-0.4
			C133.8,78.8,133.6,79.2,133.4,79.7z M191.3,67.5c-0.1,0.1,0.1,0.5,0.2,0.8c0.4-0.3,0.8-0.6,1.2-0.8c-0.1-0.2-0.2-0.4-0.3-0.6
			C192,67.1,191.6,67.2,191.3,67.5z M163.4,65.3c0.1-0.5,0.2-0.9,0.3-1.5c-0.7,0.3-1.2,0.4-1.6,0.6c0,0.1,0,0.2,0,0.3
			C162.4,64.9,162.8,65,163.4,65.3z M90.8,62.3c0.1-0.3-0.3-0.8-0.5-1.4c-0.3,0.8-0.5,1.4-0.7,1.9c0.1,0.1,0.2,0.2,0.2,0.3
			C90.2,62.9,90.7,62.6,90.8,62.3z M192.2,25c-0.2,0-0.3-0.1-0.5-0.1c-0.2,0.6-0.3,1.2-0.6,2.1C192.5,26.5,192.3,25.7,192.2,25z
			 M201.9,65.4c-0.5,0-1-0.1-1.1,0c-0.2,0.4-0.2,0.9-0.3,1.3c0.2,0,0.3,0.1,0.5,0.1C201.3,66.4,201.5,66,201.9,65.4z M146.6,68.2
			c0,0,0.4-0.2,0.6-0.3c-0.3-0.4-0.6-0.7-0.9-1.1c-0.2,0.1-0.3,0.3-0.5,0.4C146.1,67.5,146.3,67.9,146.6,68.2z M166.6,61.1
			c-0.1,0-0.3,0-0.4,0c-0.1,0.4-0.3,0.8-0.2,1.1c0.1,0.2,0.5,0.4,0.7,0.6c0.1-0.1,0.1-0.2,0.2-0.3C166.9,61.9,166.7,61.5,166.6,61.1
			z M180.3,23.4c0.4,0.2,0.8,0.4,0.9,0.4c0.4-0.3,0.7-0.7,1-1c-0.1-0.1-0.3-0.2-0.4-0.3C181.3,22.7,180.9,23,180.3,23.4z
			 M131.3,75.9c-0.2,0-0.6,0.1-0.6,0.1c0,0.4,0.1,0.9,0.1,1.3c0.2,0,0.4,0,0.6-0.1C131.4,76.8,131.3,76.4,131.3,75.9z M140.8,48.7
			c0,0-0.1-0.3-0.1-0.5c-0.4,0.1-0.9,0.3-1.3,0.4c0.1,0.2,0.1,0.4,0.2,0.6C139.9,49,140.3,48.9,140.8,48.7z"/>
	</g>
	<path d="M23.4,34c1.6-1.5,3.7-3.8,7.1-4c3.7-0.3,7.4-0.7,11.2-0.9c2.2-0.1,4.4,0.1,6.5,0.3c2.5,0.2,5,0.4,7.5,0.9
		c2.4,0.5,5.3,4.5,5.9,6.9c0.4,2,0.1,4.1,1.8,5.9c1.1,1.2,0.8,3.6,1.1,5.4c0.2,1.1,0.3,2.1,0.5,3.2c0.1,0.4,0.3,0.8,0.2,1.1
		c-0.5,1.8-1.2,3.6-0.5,5.6c0.2,0.6-0.8,1.6-1.2,2.4c-0.7,1.7-1.8,3.3-1,5.2c0,0.1,0,0.3-0.1,0.4c-0.4,0.6-0.7,1.5-1.3,1.7
		c-2.2,0.7-3.1,4.1-6.3,3c-0.5-0.2-1.2,0.4-1.8,0.6c-0.7,0.3-1.4,0.9-2.1,0.9c-3.5-0.3-7.1,0-10.6,0.3c-4.3,0.4-8.7,0.8-12.3-2.2
		c-2.6-2.3-5.2-4.8-5-8.9c0-1.3-0.6-2.6,0.9-3.4c0.1-0.1,0.1-0.7,0-0.9c-1.8-1.8-1.7-3.9-1.3-6.2c0.1-0.4-0.2-0.9-0.4-1.3
		c-0.2-0.4-0.6-1-0.5-1.3c0.8-1.8-0.5-3.3-0.6-5c-0.1-1.2-0.7-2.2,0.6-3.2c0.2-0.1-0.1-0.8-0.2-1.3C21.1,37.6,21.2,35.9,23.4,34z
		 M52.8,47c0,0.6-0.1,1.2,0,1.7c0.1,1.1,0.9,1.1,1.5,0.5c0.3-0.3,0.3-1.1,0.1-1.4C54.1,47.3,54,45.8,52.8,47c-0.1-4.2,0-4.3-3.3-5.4
		c-0.9-0.3-1.9-0.5-2.8-0.6c-2-0.3-3.9-0.6-5.9-1c-0.9-0.2-1.9-0.8-2.7-0.6c-2.4,0.6-4.8,1.5-7.1,2.3c-1.1,0.4-1.9,0.9-1.2,2.3
		c1.3,2.5,1.1,5.1,0.2,7.7c-0.1,0.4,0.1,0.8,0.2,1.3c0.2,0.9,0.7,1.8,0.5,2.6c-0.6,1.8,0.5,3.2,0.8,4.7c0.1,0.3,0.3,0.9,0.6,0.9
		c1.6,0.3,3.4,0.9,4.9,0.5c3.6-0.8,7.4,0.9,10.8-1c0.1-0.1,0.4,0,0.6,0c2.5-0.1,4.2-1.6,5.9-3.5c-0.7-0.4-1.1-0.7-1.5-0.9
		c1.3-1.4,2-4.9,1-5.5C52,49.6,52.5,48.3,52.8,47z"/>
</g>
</svg>
