<?xml version="1.0" encoding="utf-8"?>
<!-- Generator: Adobe Illustrator 23.0.1, SVG Export Plug-In . SVG Version: 6.00 Build 0)  -->
<svg version="1.1" id="Layer_1" xmlns="http://www.w3.org/2000/svg" xmlns:xlink="http://www.w3.org/1999/xlink" x="0px" y="0px"
	 viewBox="0 0 250 250" style="enable-background:new 0 0 250 250;" xml:space="preserve">
<style type="text/css">
	.st0{fill:#666666;}
	.st1{fill:#999999;}
	.st2{fill:#CCCCCC;}
	.st3{fill:#333333;}
	.st4{opacity:0.7;}
	.st5{fill:#4B2C1C;}
</style>
<g>
	<g>
		<path d="M163.5,54c-0.3,0.4-0.4,0.9-0.6,1.4c0.5,0.5,1,0.9,1.6,1.4c-1.2,0.7-0.5,2.1-1,3.1c-0.1,0.3,0.4,0.9,0.6,1.4
			c-0.3,0.4-0.9,0.7-0.5,1.7c0.2,0.4-1,1.2,0.1,1.5c-0.4,1.1-0.7,2.1-1.1,3.3c-0.1,0.3-0.4,0.7-0.5,1.2c-0.2,0.4-0.5,0.8-0.4,1.2
			c0.4,2-1.1,3-2.2,4c-0.5,0.5-0.7,0.9-0.5,1.4c0.6,1.1,0,1.7-0.9,2.3c-1.1,0.7-1.9,1.5-2.6,2.6c-1.1,1.6-2.8,2.8-4.4,3.8
			c-1.4,0.8-3,1.2-4.6,1.7c-0.9,0.3-1.9,0.3-2.7,0.6c-1.4,0.6-2.6,0.2-3.8-0.4c-0.5-0.2-1-0.6-1.4-0.5c-1.1,0.3-1.8-0.3-2.7-0.7
			c-0.8-0.4-1.8-1-2.5-0.7c-1.4,0.5-2.1-0.1-2.9-0.9c-0.7,0-1.4-0.1-2-0.2c-0.8-0.1-1.4-0.4-1.3-1.4c0-0.2-0.6-0.6-0.8-0.6
			c-0.9,0.1-1.1-0.5-1.4-1.1c-0.3-0.6-0.8-1.5-1.4-1.6c-0.8-0.2-0.8-0.5-0.8-1.2c0-1.1,0.2-2.3-1.2-2.9c-0.1-0.1-0.3-0.3-0.3-0.5
			c-0.2-2.1-0.3-4.1-0.4-6.2c0-0.2,0.1-0.4,0.2-0.5c1.5-1.7,2.7-3.6,4.6-5.1c2.4-1.9,4.7-1.2,7.1-0.8c1.5,0.3,2.8,1.3,4.2,1.9
			c2.1,1,4.1,2.1,4.9,4.6c0.3,0.9,1.1,1.1,1.9,0.5c0.4-0.3,0.8-0.7,1.2-1c1-0.7,1.9-2.8,1.9-4c0-1.1,0.2-2.2,0.3-3.3
			c0.1-0.8,0.1-1.6,0-2.3c-0.1-0.8-0.2-1.5-0.3-2.3c-0.1-0.5,0-1.1-0.1-1.6c-0.3-0.8-0.8-1.5-1.1-2.2c-0.4-0.8-0.6-1.8-1-2.6
			c-0.4-0.7-0.8-1.5-1.9-0.9c0.4-1.1-0.4-2.1-1.4-2.2c-0.7,0-1.7-0.1-2-0.5c-0.9-1.3-2.1-0.9-3.3-1c-0.4,0-0.8,0.1-1.2,0
			c-2.6-0.5-5.3-1.2-7.8,0.2c-0.2,0.1-0.5,0.1-0.7,0.1c-2.3,0.2-3.8,1.6-5.3,3.2c-1.1,1.2-2.4,2.1-2.9,3.7c-0.1,0.2-0.4,0.3-0.6,0.4
			c-0.8,0.2-1.3,0.8-1.4,1.6c-0.1,0.4-0.4,0.8-0.7,1.1c-1.1,1.6-2.5,3-2.8,5c0,0.1-0.1,0.3-0.2,0.4c-0.7,0.7-1.4,1.4-2,2.1
			c-0.1,0.2-0.2,0.4-0.2,0.7c0,1.2-0.7,1.8-1.7,2.4c-0.3,0.1-0.6,0.5-0.6,0.8c-0.1,1.6-0.9,3.4-2,3.9c-1.6,0.7-2,2.4-3.4,3
			c-0.1,0.1-0.3,0.1-0.5,0.2c-0.4,0.3-1,0.5-1.3,0.8c-1.5,1.4-3.5,1.9-5.3,1.1c-0.5-0.2-1-0.4-1.4-0.6c-0.1,0-0.2,0-0.4,0
			c0.1-3.1,0.3-6.1,0.4-9.2c-0.3,0-0.7,0-1-0.1c-1-0.4-1.7-0.1-2.4,0.6c-1.2,1.2-2.5,2.3-3.8,3.4c-1.3,1.1-2.7,2-3.4,3.6
			c-0.1,0.3-0.4,0.5-0.6,0.7c-0.8,0.6-1.7,1.1-2.4,1.8c-1.2,1.1-2.2,2.7-3.5,3.5c-1.9,1.2-3.3,3.1-5.7,3.7c-2,0.5-3.8,2.1-5.8,2.8
			c-1.2,0.5-2.7,0.5-4.1,0.5c-1.6,0-3.2-0.4-4.8-0.4c-2,0-3.9,0.3-5.9,0.3c-0.9,0-2-0.2-2.8-0.6c-1-0.6-1.9-1-3.1-0.8
			c-0.4,0.1-1.1-0.2-1.2-0.4c-0.7-1.4-2.1-1.7-3.4-2.1c-0.6-0.2-1-0.2-1.1-0.9c-0.1-0.4-0.8-0.9-1.3-1c-1.4-0.2-2.3-1.2-3.1-2.1
			c-0.4-0.5-0.6-0.8-1.3-0.7c-0.8,0.2-2.1-0.9-2.1-1.7c0.1-1.3-0.4-1.7-1.7-1.9c-0.4,0-1-0.6-1-0.7c0.3-1.2-0.7-1.7-1.3-2.4
			c-0.3-0.4-0.4-0.9-0.6-1.3c-0.2-0.4-0.5-0.9-0.9-1.1c-0.7-0.3-1-0.6-0.9-1.4c0-0.8,0.5-1.9-1.1-2.1c-0.5-0.1-1.1-1.4-1.2-2.2
			c-0.2-1.6-0.1-3.3-0.3-5c-0.1-0.8-0.5-1.5-0.7-2.3c-0.2-0.7-0.2-1.4-0.3-2.2c-0.1-0.8,0.1-1.8-0.3-2.5c-0.6-1-0.5-1.7,0.1-2.6
			c0.5-0.6,0.8-1.4,0.2-2.2c-0.2-0.3-0.4-1.2-0.2-1.3c1.2-0.7,0.9-2,1.1-2.9c0.4-2.2,1.7-3.6,3.1-5.1c0.5-0.5,1.1-0.8,1.6-1.3
			c2.7-2.9,6.2-4.3,10-4.9c2-0.3,3.8-0.4,5.8,0.1c2,0.5,4.1,0.6,6.2,1c0.8,0.2,1.5,0.8,2.3,1.2c-0.7-0.1-1.5-0.5-2,0.6
			c0.9,0.5,1.5,0,2-0.6c1.6,0.6,0.7,2.3,1.3,3.5c0.3-0.6,0.6-0.9,0.9-1.5c0,0.7-0.1,1.1-0.1,1.6c0.4-0.2,0.7-0.4,1-0.5
			c0.7,1.1,1.4,2.2,2,3.3c-0.1,0-0.1,0.1-0.2,0.1c-0.1-0.2-0.3-0.3-0.6-0.6c-0.2,0.6-0.7,1.4-0.6,1.5c0.6,0.6,1.4,1,2.3,1.6
			c-0.2,0.7-0.5,1.6-0.1,2.7c0.7,2-0.1,3.2-2.2,3.9c-0.5,0.2-0.9,0.5-1.2,0.9c-0.9,1.1-2.3,1.4-3.7,1.2c-1.1-0.2-2.2-1.4-3.5-0.3
			c0,0-0.2,0-0.2,0c-1.6-0.8-3.5-1.3-4.8-2.5c-1.2-1.2-1.8-3.1-2.6-4.7c-0.6-1.4-1.1-1.6-2.3-0.6c-0.6,0.5-1.2,1.1-2,1.4
			c-1.1,0.6-1.4,1.6-1.3,2.7c0.1,0.6,0.3,1.1,0.2,1.7c-0.4,2-0.4,3.9,1,5.5c-0.2-0.2-0.4-0.3-0.9-0.6c-0.1,0.8-0.5,1.5-0.2,1.8
			c0.3,0.4,1.1,0.4,1.7,0.5c0.1-0.1,0.3-0.1,0.4-0.2c0,1.2-0.1,2.4-0.1,3.6c1.3-0.3,1.7,0.7,2.3,1.8c0.5,0.8,1.3,1.5,1.9,2.2
			c0.1-0.1,0.1-0.2,0.2-0.2c0-0.2-0.1-0.3,0-0.2c1,0.3,2.2,0.9,3.3,1.1c1.5,0.2,3,0.3,4.5,0.2c1.6-0.1,3.4,0.1,4.7-1.1
			c1-0.9,1.9-1.3,3.1-1.2c0.3,0,0.6-0.3,0.9-0.5c-0.3-0.2-0.7-0.5-1-0.6c-0.3-0.1-0.7,0.2-1.3,0.3c0.2-0.8,0.2-1.5,0.5-1.9
			c1.2-1.4,1.7-3.1,2.2-4.8c0.8-2.7,3.5-3.9,5.3-5.9c0.9-1,2.5-1.5,3.7-2.2c0.5-0.3,1-0.5,1.5-0.7c1.8-0.5,3.6-1,5.4-1.6
			c0.4-0.1,0.8-0.7,0.9-1.1c0.1-0.2-0.5-0.6-0.9-0.9c-0.6-0.4-1.3-0.7-1.8-1.1c-0.5-0.4-0.8-1.3-1.3-1.5c-1.1-0.3-1.6-1-2.1-1.8
			c-0.3-0.4-0.7-0.6-1.1-0.8c-0.9-0.5-1.4-1.1-1.1-2.1c0.1-0.5,0.1-1,0-1.5c-0.6-2.2,1-4.1,3.3-4c0.2,0,0.3,0.1,0.5,0
			c2.5-0.9,4.5,0.7,6.8,1.2c0.9,0.2,1.7,0.6,2.5,0.9c0.9,0.3,1.8,0.6,2.5,0.8c0.7,0,1.3-0.3,1.7-0.1c1.4,0.7,2.8,0.7,4.3,0.4
			c1.3-0.2,2.5-0.7,3.7-1c0.9-0.2,1.8-0.4,2.7-0.7c1.7-0.6,3.4-1.4,5.1-2c2.4-0.9,4.9-1.3,7.3-2.3c1.4-0.6,2.8-1.2,4.2-1.7
			c2.3-0.8,4.5-1.7,6.8-2.3C118,21,120,21,122,20.6c2.4-0.4,4.8,0.1,7.1,0.5c1,0.2,2,0.4,3,0.6c3.1,0.5,6.3,1.2,9.3,2.2
			c2,0.7,4.1,1.4,5.7,3.1c1.6,1.7,3.9,2.7,5,4.9c0.1,0.2,0.5,0.3,0.8,0.5c0.4,0.2,0.9,0.3,1.3,0.6c0.5,0.5,1,1.1,1.3,1.5
			c0,0.4-0.1,0.9,0.1,0.9c1.1,0.6,1.8,1.4,2.4,2.5c0.7,1.3,1.7,2.4,2.5,3.4c-0.2,0.1-0.7,0.1-0.8,0.4c-0.1,0.2,0.1,0.9,0.3,0.9
			c0.4,0.1,0.9,0,1.5-0.1c0,0.2,0.2,0.8,0.1,1.1c-0.8,1.2,0.1,1.4,1,1.6c0.2,0.9,0.7,1.9,0.5,2.7c-0.2,0.9,0,1.7,0.5,2.2
			c0.7,0.7,0.8,1.5,0.8,2.4c0,0.5,0,1,0.1,1.6C164.2,53.6,163.9,53.4,163.5,54z M75.2,54.8c-0.3,0.1-0.6,0.3-0.8,0.5
			c-0.4,0.4-0.8,0.9-1.3,1.1c-1.8,0.7-2.6,2.5-4,3.6c-0.9,0.6-1.7,1.3-2.6,1.9c-0.6,0.5-1.4,1-1.8,1.6c-0.9,1.4-2.7,1.6-3.6,3
			c-0.8,1.2-2.3,1.8-3.4,2.7c-0.5,0.4-1.1,0.8-1.7,1.1c-2.2,1.3-4.6,1.7-7.1,1.6c-0.3,0-0.6-0.2-0.9-0.3c-0.5-0.2-0.9-0.5-1.4-0.8
			c-1.3-0.7-2.5-1.3-3.8-2c-0.9-0.4-1.8-0.8-2.6-1.4c-1.2-0.8-2.2-1.8-3.3-2.8c-0.3-0.3-0.6-0.8-0.9-0.8c-0.6-0.1-1.2,0.1-1.9,0.2
			c0.1,0.5,0.1,1.1,0.4,1.6c1.3,2,2.8,3.8,5.1,4.9c1,0.5,1.9,1.4,2.9,1.9c1.3,0.7,2.8,1.1,4.1,1.8c1.3,0.7,2.7,1,4.1,0.7
			c1.9-0.4,3.7-0.9,5.6-1.4c2.7-0.7,4.3-2.9,6.2-4.6c0.8-0.7,1.8-1.1,2.6-1.7c1.5-1.2,2.8-2.5,4.3-3.7c1.1-0.9,2-2.1,3.6-2.4
			c0.2,0,0.4-0.4,0.5-0.6c1-2.4,3.1-3.5,5.1-4.9c1.1-0.8,2.2-1.7,3.3-2.5c1.7-1.2,3.5-2.4,5.3-3.6c0.8-0.5,1.4-1.1,2.2-1.6
			c0.7-0.4,1.5-0.8,2.4-1.2c-0.4-0.6-0.1-1,1-1.2c0.9-0.2,1.7-0.8,2.5-1.2c1.5-0.7,3-1.4,4.5-2.1c0,0.5,0.1,0.8,0.1,1.1
			c0.2-0.1,0.4-0.2,0.4-0.2c0-1.2,0.9-1.5,1.8-1.9c1.1-0.5,2.2-1.1,3.3-1.5c0.7-0.3,1.4-0.6,2.2-0.6c2.2-0.2,4.4-0.7,6.5-1.2
			c2-0.5,4-0.6,6-1c0.5-0.1,0.9-0.4,1.3-0.5c1.5-0.2,2.9-0.6,4.5-0.2c1.5,0.4,3.1,0.1,4.6,0.2c0.7,0.1,1.4,0.3,2.3,0.5
			c0.2-0.6,0.8-0.3,1.4,0c0.2,0.1,0.5,0.2,0.8,0.2c2.3,0,4,1.3,5.8,2.4c0.9,0.6,2.1,1.1,3,1.7c1.5,0.8,2.5,2.5,3.8,3.7
			c1.1,1.1,2.1,2.1,3.2,3.1c0.2,0.2,0.8,0.2,1.1,0.1c0.2-0.1,0.3-0.7,0.1-1c-0.4-1-0.8-1.9-1.3-2.8c-1.1-2-3.1-3-4.5-4.7
			c-0.1-0.1-0.2-0.1-0.3-0.2c-0.7-2.2-3-2.2-4.5-3.4c-0.8-0.6-1.6-1.1-2.5-1.7c-0.3-0.2-0.8-0.6-1.1-0.4c-1.1,0.5-1.7-0.1-2.4-0.8
			c-0.3-0.3-0.9-0.2-1.4-0.3c-0.9-0.1-1.7-0.2-2.6-0.3c-0.5,0-0.9-0.1-1.4-0.1c-1.1,0-2.3-0.2-3.4,0c-2.9,0.4-5.9,0.9-8.8,1.4
			c-1,0.1-2,0.1-3,0.2c-3.4,0.6-6.8,1.2-10.1,2.1c-1.8,0.5-3.3,1.7-5,2.5c-1.1,0.5-2.3,0.7-3.3,1.2c-2.3,1.2-4.5,2.5-6.8,3.7
			c-1.5,0.8-3.1,1.5-4.5,2.3c-0.7,0.4-1.4,1.1-1.9,1.8c-1.2,1.6-2.8,2.6-4.7,3.2c-0.2,0.1-0.6-0.2-0.9-0.3
			C77.9,53,76.9,54.3,75.2,54.8z M71.8,76.9c0.7-0.3,1.2-1,1.8-1.5c-0.3-0.1-0.8-0.4-0.9-0.3c-0.6,0.6-1.1,1.1-2,0.6
			c-0.1-0.1-0.5,0.5-1,0.9C70.7,76.8,71.4,77.1,71.8,76.9z M31.8,51.4c-0.7-1.4-1.5-1.6-2.7-0.9c0.1,0.4,0.1,0.8,0.2,1.2
			c0,0.3,0.1,0.6,0.2,1c0.3-0.2,0.8-0.3,0.9-0.6c0.2-0.3,0.1-0.7,0.1-1.2C30.9,51.1,31.3,51.2,31.8,51.4z M89.8,35.2
			c-1.1,0.9-2.3,1.8-3.4,2.7C88.5,37.8,89.8,36.7,89.8,35.2z M37.7,34.7c0.3-0.2,0.8-0.9,0.7-1.1c-0.8-1-1.4,0-2.4,0.2
			C36.5,34.6,36.9,35.3,37.7,34.7z M105.7,52.4c0.1,0,0.6-0.4,0.6-0.5c0-1.1-1-0.8-1.7-1.3C104.3,51.7,104.9,52.1,105.7,52.4z
			 M99.1,72c-0.2,0-0.5,0.3-0.7,0.5c0.4,0.5,0.8,0.9,1.2,1.4c0.1-0.1,0.3-0.2,0.4-0.4C99.9,72.8,100.1,72.1,99.1,72z M116,47.4
			c-0.1,0.1,0,0.4,0,0.5c0,0.1,0.4,0.1,0.4,0.1c0.5-0.7,1.3-1.2,0.9-2.6C116.8,46.3,116.4,46.8,116,47.4z M89.7,64.5
			c0.7,0,1.4,0.1,2.3,0.1C90.6,63.1,90.3,63.1,89.7,64.5z M69.7,48.7c-0.1-1.6-1.2-1.5-2.1-1.7c-0.1,0.1-0.1,0.2-0.2,0.3
			C68.2,47.7,68.9,48.1,69.7,48.7z M84,40.4c-0.3,0.2-0.6,0.5-0.9,0.7c-0.3,0.3-0.5,0.6-0.8,0.9C84.1,41.8,84.5,41.4,84,40.4z
			 M149.6,51.1c0,0.9,0,1.5-0.1,2.1c0.2,0,0.3,0,0.5,0C150.5,52.6,150.9,51.9,149.6,51.1z M150,78.4c0.1,0.2,0.3,0.5,0.4,0.5
			c0.4-0.2,0.8-0.4,1.3-0.7c-0.1-0.2-0.2-0.4-0.4-0.6C150.9,77.8,150.5,78.1,150,78.4z M122.6,21.6c-1.1,0.8-1.4,1.9-0.6,2.5
			C122.2,23.2,122.4,22.4,122.6,21.6z M67.6,79.8c0,0,0.3,0.2,0.5,0.4c0.3-0.4,0.6-0.9,0.9-1.3c-0.2-0.1-0.4-0.3-0.6-0.4
			C68,78.9,67.8,79.3,67.6,79.8z M125.5,67.6c-0.1,0.1,0.1,0.5,0.2,0.8c0.4-0.3,0.8-0.6,1.2-0.8c-0.1-0.2-0.2-0.4-0.3-0.6
			C126.2,67.2,125.8,67.3,125.5,67.6z M97.6,65.4c0.1-0.5,0.2-0.9,0.3-1.5c-0.7,0.3-1.2,0.4-1.6,0.6c0,0.1,0,0.2,0,0.3
			C96.6,65,97,65.1,97.6,65.4z M25,62.4c0.1-0.3-0.3-0.8-0.5-1.4c-0.3,0.8-0.5,1.4-0.7,1.9c0.1,0.1,0.2,0.2,0.2,0.3
			C24.4,63,24.9,62.7,25,62.4z M126.4,25.1c-0.2,0-0.3-0.1-0.5-0.1c-0.2,0.6-0.3,1.2-0.6,2.1C126.7,26.6,126.5,25.8,126.4,25.1z
			 M136.1,65.5c-0.5,0-1-0.1-1.1,0c-0.2,0.4-0.2,0.9-0.3,1.3c0.2,0,0.3,0.1,0.5,0.1C135.5,66.5,135.7,66.1,136.1,65.5z M80.8,68.3
			c0,0,0.4-0.2,0.6-0.3c-0.3-0.4-0.6-0.7-0.9-1.1c-0.2,0.1-0.3,0.3-0.5,0.4C80.3,67.6,80.5,68,80.8,68.3z M100.8,61.2
			c-0.1,0-0.3,0-0.4,0c-0.1,0.4-0.3,0.8-0.2,1.1c0.1,0.2,0.5,0.4,0.7,0.6c0.1-0.1,0.1-0.2,0.2-0.3C101.1,62,100.9,61.6,100.8,61.2z
			 M114.4,23.5c0.4,0.2,0.8,0.4,0.9,0.4c0.4-0.3,0.7-0.7,1-1c-0.1-0.1-0.3-0.2-0.4-0.3C115.5,22.8,115.1,23.1,114.4,23.5z M65.5,76
			c-0.2,0-0.6,0.1-0.6,0.1c0,0.4,0.1,0.9,0.1,1.3c0.2,0,0.4,0,0.6-0.1C65.6,76.9,65.5,76.5,65.5,76z M75,48.8c0,0-0.1-0.3-0.1-0.5
			c-0.4,0.1-0.9,0.3-1.3,0.4c0.1,0.2,0.1,0.4,0.2,0.6C74.1,49.1,74.5,49,75,48.8z"/>
		<path d="M195.8,230.6c-0.4-0.3-0.9-0.4-1.4-0.6c-0.5,0.5-0.9,1-1.4,1.6c-0.7-1.2-2.1-0.5-3.1-1c-0.3-0.1-0.9,0.4-1.4,0.6
			c-0.4-0.3-0.7-0.9-1.7-0.5c-0.4,0.2-1.2-1-1.5,0.1c-1.1-0.4-2.1-0.7-3.3-1.1c-0.3-0.1-0.7-0.4-1.2-0.5c-0.4-0.2-0.8-0.5-1.2-0.4
			c-2,0.4-3-1.1-4-2.2c-0.5-0.5-0.9-0.7-1.4-0.5c-1.1,0.6-1.7,0-2.3-0.9c-0.7-1.1-1.5-1.9-2.6-2.6c-1.6-1.1-2.8-2.8-3.8-4.4
			c-0.8-1.4-1.2-3-1.7-4.6c-0.3-0.9-0.3-1.9-0.6-2.7c-0.6-1.4-0.2-2.6,0.4-3.8c0.2-0.5,0.6-1,0.5-1.4c-0.3-1.1,0.3-1.8,0.7-2.7
			c0.4-0.8,1-1.8,0.7-2.5c-0.5-1.4,0.1-2.1,0.9-2.9c0-0.7,0.1-1.4,0.2-2c0.1-0.8,0.4-1.4,1.4-1.3c0.2,0,0.6-0.6,0.6-0.8
			c-0.1-0.9,0.5-1.1,1.1-1.4c0.6-0.3,1.5-0.8,1.6-1.4c0.2-0.8,0.5-0.8,1.2-0.8c1.1,0,2.3,0.2,2.9-1.2c0.1-0.1,0.3-0.3,0.5-0.3
			c2.1-0.2,4.1-0.3,6.2-0.4c0.2,0,0.4,0.1,0.5,0.2c1.7,1.5,3.6,2.7,5.1,4.6c1.9,2.4,1.2,4.7,0.8,7.1c-0.3,1.5-1.3,2.8-1.9,4.2
			c-1,2.1-2.1,4.1-4.6,4.9c-0.9,0.3-1.1,1.1-0.5,1.9c0.3,0.4,0.7,0.8,1,1.2c0.7,1,2.8,1.9,4,1.9c1.1,0,2.2,0.2,3.3,0.3
			c0.8,0.1,1.6,0.1,2.3,0c0.8-0.1,1.5-0.2,2.3-0.3c0.5-0.1,1.1,0,1.6-0.1c0.8-0.3,1.5-0.8,2.2-1.1c0.8-0.4,1.8-0.6,2.6-1
			c0.7-0.4,1.5-0.8,0.9-1.9c1.1,0.4,2.1-0.4,2.2-1.4c0-0.7,0.1-1.7,0.5-2c1.3-0.9,0.9-2.1,1-3.3c0-0.4-0.1-0.8,0-1.2
			c0.5-2.6,1.2-5.3-0.2-7.8c-0.1-0.2-0.1-0.5-0.1-0.7c-0.2-2.3-1.6-3.8-3.2-5.3c-1.2-1.1-2.1-2.4-3.7-2.9c-0.2-0.1-0.3-0.4-0.4-0.6
			c-0.2-0.8-0.8-1.3-1.6-1.4c-0.4-0.1-0.8-0.4-1.1-0.7c-1.6-1.1-3-2.5-5-2.8c-0.1,0-0.3-0.1-0.4-0.2c-0.7-0.7-1.4-1.4-2.1-2
			c-0.2-0.1-0.4-0.2-0.7-0.2c-1.2,0-1.8-0.7-2.4-1.7c-0.1-0.3-0.5-0.6-0.8-0.6c-1.6-0.1-3.4-0.9-3.9-2c-0.7-1.6-2.4-2-3-3.4
			c-0.1-0.1-0.1-0.3-0.2-0.5c-0.3-0.4-0.5-1-0.8-1.3c-1.4-1.5-1.9-3.5-1.1-5.3c0.2-0.5,0.4-1,0.6-1.4c0-0.1,0-0.2,0-0.4
			c3.1,0.1,6.1,0.3,9.2,0.4c0-0.3,0-0.7,0.1-1c0.4-1,0.1-1.7-0.6-2.4c-1.2-1.2-2.3-2.5-3.4-3.8c-1.1-1.3-2-2.7-3.6-3.4
			c-0.3-0.1-0.5-0.4-0.7-0.6c-0.6-0.8-1.1-1.7-1.8-2.4c-1.1-1.2-2.7-2.2-3.5-3.5c-1.2-1.9-3.1-3.3-3.7-5.7c-0.5-2-2.1-3.8-2.8-5.8
			c-0.5-1.2-0.5-2.7-0.5-4.1c0-1.6,0.4-3.2,0.4-4.8c0-2-0.3-3.9-0.3-5.9c0-0.9,0.2-2,0.6-2.8c0.6-1,1-1.9,0.8-3.1
			c-0.1-0.4,0.2-1.1,0.4-1.2c1.4-0.7,1.7-2.1,2.1-3.4c0.2-0.6,0.2-1,0.9-1.1c0.4-0.1,0.9-0.8,1-1.3c0.2-1.4,1.2-2.3,2.1-3.1
			c0.5-0.4,0.8-0.6,0.7-1.3c-0.2-0.8,0.9-2.1,1.7-2.1c1.3,0.1,1.7-0.4,1.9-1.7c0-0.4,0.6-1,0.7-1c1.2,0.3,1.7-0.7,2.4-1.3
			c0.4-0.3,0.9-0.4,1.3-0.6c0.4-0.2,0.9-0.5,1.1-0.9c0.3-0.7,0.6-1,1.4-0.9c0.8,0,1.9,0.5,2.1-1.1c0.1-0.5,1.4-1.1,2.2-1.2
			c1.6-0.2,3.3-0.1,5-0.3c0.8-0.1,1.5-0.5,2.3-0.7c0.7-0.2,1.4-0.2,2.2-0.3c0.8-0.1,1.8,0.1,2.5-0.3c1-0.6,1.7-0.5,2.6,0.1
			c0.6,0.5,1.4,0.8,2.2,0.2c0.3-0.2,1.2-0.4,1.3-0.2c0.7,1.2,2,0.9,2.9,1.1c2.2,0.4,3.6,1.7,5.1,3.1c0.5,0.5,0.8,1.1,1.3,1.6
			c2.9,2.7,4.3,6.2,4.9,10c0.3,2,0.4,3.8-0.1,5.8c-0.5,2-0.6,4.1-1,6.2c-0.2,0.8-0.8,1.5-1.2,2.3c0.1-0.7,0.5-1.5-0.6-2
			c-0.5,0.9,0,1.5,0.6,2c-0.6,1.6-2.3,0.7-3.5,1.3c0.6,0.3,0.9,0.6,1.5,0.9c-0.7,0-1.1-0.1-1.6-0.1c0.2,0.4,0.4,0.7,0.5,1
			c-1.1,0.7-2.2,1.4-3.3,2c0-0.1-0.1-0.1-0.1-0.2c0.2-0.1,0.3-0.3,0.6-0.6c-0.6-0.2-1.4-0.7-1.5-0.6c-0.6,0.6-1,1.4-1.6,2.3
			c-0.7-0.2-1.6-0.5-2.7-0.1c-2,0.7-3.2-0.1-3.9-2.2c-0.2-0.5-0.5-0.9-0.9-1.2c-1.1-0.9-1.4-2.3-1.2-3.7c0.2-1.1,1.4-2.2,0.3-3.5
			c0,0,0-0.2,0-0.2c0.8-1.6,1.3-3.5,2.5-4.8c1.2-1.2,3.1-1.8,4.7-2.6c1.4-0.6,1.6-1.1,0.6-2.3c-0.5-0.6-1.1-1.2-1.4-2
			c-0.6-1.1-1.6-1.4-2.7-1.3c-0.6,0.1-1.1,0.3-1.7,0.2c-2-0.4-3.9-0.4-5.5,1c0.2-0.2,0.3-0.4,0.6-0.9c-0.8-0.1-1.5-0.5-1.8-0.2
			c-0.4,0.3-0.4,1.1-0.5,1.7c0.1,0.1,0.1,0.3,0.2,0.4c-1.2,0-2.4-0.1-3.6-0.1c0.3,1.3-0.7,1.7-1.8,2.3c-0.8,0.5-1.5,1.3-2.2,1.9
			c0.1,0.1,0.2,0.1,0.2,0.2c0.2,0,0.3-0.1,0.2,0c-0.3,1-0.9,2.2-1.1,3.3c-0.2,1.5-0.3,3-0.2,4.5c0.1,1.6-0.1,3.4,1.1,4.7
			c0.9,1,1.3,1.9,1.2,3.1c0,0.3,0.3,0.6,0.5,0.9c0.2-0.3,0.5-0.7,0.6-1c0.1-0.3-0.2-0.7-0.3-1.3c0.8,0.2,1.5,0.2,1.9,0.5
			c1.4,1.2,3.1,1.7,4.8,2.2c2.7,0.8,3.9,3.5,5.9,5.3c1,0.9,1.5,2.5,2.2,3.7c0.3,0.5,0.5,1,0.7,1.5c0.5,1.8,1,3.6,1.6,5.4
			c0.1,0.4,0.7,0.8,1.1,0.9c0.2,0.1,0.6-0.5,0.9-0.9c0.4-0.6,0.7-1.3,1.1-1.8c0.4-0.5,1.3-0.8,1.5-1.3c0.3-1.1,1-1.6,1.8-2.1
			c0.4-0.3,0.6-0.7,0.8-1.1c0.5-0.9,1.1-1.4,2.1-1.1c0.5,0.1,1,0.1,1.5,0c2.2-0.6,4.1,1,4,3.3c0,0.2-0.1,0.3,0,0.5
			c0.9,2.5-0.7,4.5-1.2,6.8c-0.2,0.9-0.6,1.7-0.9,2.5c-0.3,0.9-0.6,1.8-0.8,2.5c0,0.7,0.3,1.3,0.1,1.7c-0.7,1.4-0.7,2.8-0.4,4.3
			c0.2,1.3,0.7,2.5,1,3.7c0.2,0.9,0.4,1.8,0.7,2.7c0.6,1.7,1.4,3.4,2,5.1c0.9,2.4,1.3,4.9,2.3,7.3c0.6,1.4,1.2,2.8,1.7,4.2
			c0.8,2.3,1.7,4.5,2.3,6.8c0.5,1.9,0.5,3.9,0.9,5.9c0.4,2.4-0.1,4.8-0.5,7.1c-0.2,1-0.4,2-0.6,3c-0.5,3.1-1.2,6.3-2.2,9.3
			c-0.7,2-1.4,4.1-3.1,5.7c-1.7,1.6-2.7,3.9-4.9,5c-0.2,0.1-0.3,0.5-0.5,0.8c-0.2,0.4-0.3,0.9-0.6,1.3c-0.5,0.5-1.1,1-1.5,1.3
			c-0.4,0-0.9-0.1-0.9,0.1c-0.6,1.1-1.4,1.8-2.5,2.4c-1.3,0.7-2.4,1.7-3.4,2.5c-0.1-0.2-0.1-0.7-0.4-0.8c-0.2-0.1-0.9,0.1-0.9,0.3
			c-0.1,0.4,0,0.9,0.1,1.5c-0.2,0-0.8,0.2-1.1,0.1c-1.2-0.8-1.4,0.1-1.6,1c-0.9,0.2-1.9,0.7-2.7,0.5c-0.9-0.2-1.7,0-2.2,0.5
			c-0.7,0.7-1.5,0.8-2.4,0.8c-0.5,0-1,0-1.6,0.1C196.2,231.3,196.4,231,195.8,230.6z M194.9,142.3c-0.1-0.3-0.3-0.6-0.5-0.8
			c-0.4-0.4-0.9-0.8-1.1-1.3c-0.7-1.8-2.5-2.6-3.6-4c-0.6-0.9-1.3-1.7-1.9-2.6c-0.5-0.6-1-1.4-1.6-1.8c-1.4-0.9-1.6-2.7-3-3.6
			c-1.2-0.8-1.8-2.3-2.7-3.4c-0.4-0.5-0.8-1.1-1.1-1.7c-1.3-2.2-1.7-4.6-1.6-7.1c0-0.3,0.2-0.6,0.3-0.9c0.2-0.5,0.5-0.9,0.8-1.4
			c0.7-1.3,1.3-2.5,2-3.8c0.4-0.9,0.8-1.8,1.4-2.6c0.8-1.2,1.8-2.2,2.8-3.3c0.3-0.3,0.8-0.6,0.8-0.9c0.1-0.6-0.1-1.2-0.2-1.9
			c-0.5,0.1-1.1,0.1-1.6,0.4c-2,1.3-3.8,2.8-4.9,5.1c-0.5,1-1.4,1.9-1.9,2.9c-0.7,1.3-1.1,2.8-1.8,4.1c-0.7,1.3-1,2.7-0.7,4.1
			c0.4,1.9,0.9,3.7,1.4,5.6c0.7,2.7,2.9,4.3,4.6,6.2c0.7,0.8,1.1,1.8,1.7,2.6c1.2,1.5,2.5,2.8,3.7,4.3c0.9,1.1,2.1,2,2.4,3.6
			c0,0.2,0.4,0.4,0.6,0.5c2.4,1,3.5,3.1,4.9,5.1c0.8,1.1,1.7,2.2,2.5,3.3c1.2,1.7,2.4,3.5,3.6,5.3c0.5,0.8,1.1,1.4,1.6,2.2
			c0.4,0.7,0.8,1.5,1.2,2.4c0.6-0.4,1-0.1,1.2,1c0.2,0.9,0.8,1.7,1.2,2.5c0.7,1.5,1.4,3,2.1,4.5c-0.5,0-0.8,0.1-1.1,0.1
			c0.1,0.2,0.2,0.4,0.2,0.4c1.2,0,1.5,0.9,1.9,1.8c0.5,1.1,1.1,2.2,1.5,3.3c0.3,0.7,0.6,1.4,0.6,2.2c0.2,2.2,0.7,4.4,1.2,6.5
			c0.5,2,0.6,4,1,6c0.1,0.5,0.4,0.9,0.5,1.3c0.2,1.5,0.6,2.9,0.2,4.5c-0.4,1.5-0.1,3.1-0.2,4.6c-0.1,0.7-0.3,1.4-0.5,2.3
			c0.6,0.2,0.3,0.8,0,1.4c-0.1,0.2-0.2,0.5-0.2,0.8c0,2.3-1.3,4-2.4,5.8c-0.6,0.9-1.1,2.1-1.7,3c-0.8,1.5-2.5,2.5-3.7,3.8
			c-1.1,1.1-2.1,2.1-3.1,3.2c-0.2,0.2-0.2,0.8-0.1,1.1c0.1,0.2,0.7,0.3,1,0.1c1-0.4,1.9-0.8,2.8-1.3c2-1.1,3-3.1,4.7-4.5
			c0.1-0.1,0.1-0.2,0.2-0.3c2.2-0.7,2.2-3,3.4-4.5c0.6-0.8,1.1-1.6,1.7-2.5c0.2-0.3,0.6-0.8,0.4-1.1c-0.5-1.1,0.1-1.7,0.8-2.4
			c0.3-0.3,0.2-0.9,0.3-1.4c0.1-0.9,0.2-1.7,0.3-2.6c0-0.5,0.1-0.9,0.1-1.4c0-1.1,0.2-2.3,0-3.4c-0.4-2.9-0.9-5.9-1.4-8.8
			c-0.1-1-0.1-2-0.2-3c-0.6-3.4-1.2-6.8-2.1-10.1c-0.5-1.8-1.7-3.3-2.5-5c-0.5-1.1-0.7-2.3-1.2-3.3c-1.2-2.3-2.5-4.5-3.7-6.8
			c-0.8-1.5-1.5-3.1-2.3-4.5c-0.4-0.7-1.1-1.4-1.8-1.9c-1.6-1.2-2.6-2.8-3.2-4.7c-0.1-0.2,0.2-0.6,0.3-0.9
			C196.7,145,195.5,144.1,194.9,142.3z M172.9,138.9c0.3,0.7,1,1.2,1.5,1.8c0.1-0.3,0.4-0.8,0.3-0.9c-0.6-0.6-1.1-1.1-0.6-2
			c0.1-0.1-0.5-0.5-0.9-1C173,137.9,172.7,138.5,172.9,138.9z M198.4,98.9c1.4-0.7,1.6-1.5,0.9-2.7c-0.4,0.1-0.8,0.1-1.2,0.2
			c-0.3,0-0.6,0.1-1,0.2c0.2,0.3,0.3,0.8,0.6,0.9c0.3,0.2,0.7,0.1,1.2,0.1C198.7,98.1,198.6,98.4,198.4,98.9z M214.6,156.9
			c-0.9-1.1-1.8-2.3-2.7-3.4C212,155.6,213.1,156.9,214.6,156.9z M215.1,104.8c0.2,0.3,0.9,0.8,1.1,0.7c1-0.8,0-1.4-0.2-2.4
			C215.1,103.6,214.5,104,215.1,104.8z M197.4,172.8c0,0.1,0.4,0.6,0.5,0.6c1.1,0,0.8-1,1.3-1.7C198.1,171.5,197.6,172,197.4,172.8z
			 M177.8,166.2c0-0.2-0.3-0.5-0.5-0.7c-0.5,0.4-0.9,0.8-1.4,1.2c0.1,0.1,0.2,0.3,0.4,0.4C177,167.1,177.7,167.2,177.8,166.2z
			 M202.3,183.1c-0.1-0.1-0.4,0-0.5,0c-0.1,0-0.1,0.4-0.1,0.4c0.7,0.5,1.2,1.3,2.6,0.9C203.5,183.9,202.9,183.5,202.3,183.1z
			 M185.3,156.8c0,0.7-0.1,1.4-0.1,2.3C186.7,157.8,186.7,157.4,185.3,156.8z M201.1,136.9c1.6-0.1,1.5-1.2,1.7-2.1
			c-0.1-0.1-0.2-0.1-0.3-0.2C202.1,135.3,201.7,136,201.1,136.9z M209.4,151.1c-0.2-0.3-0.5-0.6-0.7-0.9c-0.3-0.3-0.6-0.5-0.9-0.8
			C208,151.3,208.4,151.6,209.4,151.1z M198.7,216.7c-0.9,0-1.5,0-2.1-0.1c0,0.2,0,0.3,0,0.5C197.2,217.6,197.9,218,198.7,216.7z
			 M171.4,217.2c-0.2,0.1-0.5,0.3-0.5,0.4c0.2,0.4,0.4,0.8,0.7,1.3c0.2-0.1,0.4-0.2,0.6-0.4C172,218,171.7,217.6,171.4,217.2z
			 M228.2,189.7c-0.8-1.1-1.9-1.4-2.5-0.6C226.6,189.3,227.3,189.5,228.2,189.7z M170,134.7c0,0-0.2,0.3-0.4,0.5
			c0.4,0.3,0.9,0.6,1.3,0.9c0.1-0.2,0.3-0.4,0.4-0.6C170.9,135.2,170.4,134.9,170,134.7z M182.2,192.6c-0.1-0.1-0.5,0.1-0.8,0.2
			c0.3,0.4,0.6,0.8,0.8,1.2c0.2-0.1,0.4-0.2,0.6-0.3C182.6,193.3,182.5,192.9,182.2,192.6z M184.4,164.7c0.5,0.1,0.9,0.2,1.5,0.3
			c-0.3-0.7-0.4-1.2-0.6-1.6c-0.1,0-0.2,0-0.3,0C184.8,163.8,184.6,164.2,184.4,164.7z M187.4,92.1c0.3,0.1,0.8-0.3,1.4-0.5
			c-0.8-0.3-1.4-0.5-1.9-0.7c-0.1,0.1-0.2,0.2-0.3,0.2C186.8,91.5,187,92,187.4,92.1z M224.7,193.6c0-0.2,0.1-0.3,0.1-0.5
			c-0.6-0.2-1.2-0.3-2.1-0.6C223.2,193.8,224,193.6,224.7,193.6z M184.3,203.2c0-0.5,0.1-1,0-1.1c-0.4-0.2-0.9-0.2-1.3-0.3
			c0,0.2-0.1,0.3-0.1,0.5C183.3,202.6,183.7,202.8,184.3,203.2z M181.5,147.9c0,0,0.2,0.4,0.3,0.6c0.4-0.3,0.7-0.6,1.1-0.9
			c-0.1-0.2-0.3-0.3-0.4-0.5C182.2,147.4,181.8,147.6,181.5,147.9z M188.6,167.9c0-0.1,0-0.3,0-0.4c-0.4-0.1-0.8-0.3-1.1-0.2
			c-0.2,0.1-0.4,0.5-0.6,0.7c0.1,0.1,0.2,0.1,0.3,0.2C187.8,168.2,188.2,168.1,188.6,167.9z M226.2,181.6c-0.2,0.4-0.4,0.8-0.4,0.9
			c0.3,0.4,0.7,0.7,1,1c0.1-0.1,0.2-0.3,0.3-0.4C227,182.6,226.7,182.2,226.2,181.6z M173.7,132.6c0-0.2-0.1-0.6-0.1-0.6
			c-0.4,0-0.9,0.1-1.3,0.1c0,0.2,0,0.4,0.1,0.6C172.9,132.7,173.3,132.7,173.7,132.6z M201,142.1c0,0,0.3-0.1,0.5-0.1
			c-0.1-0.4-0.3-0.9-0.4-1.3c-0.2,0.1-0.4,0.1-0.6,0.2C200.6,141.2,200.8,141.7,201,142.1z"/>
	</g>
	<path d="M215.6,24.7c1.5,1.6,3.8,3.7,4,7.1c0.3,3.7,0.7,7.4,0.9,11.2c0.1,2.2-0.1,4.4-0.3,6.5c-0.2,2.5-0.4,5-0.9,7.5
		c-0.5,2.4-4.5,5.3-6.9,5.9c-2,0.4-4.1,0.1-5.9,1.8c-1.2,1.1-3.6,0.8-5.4,1.1c-1.1,0.2-2.1,0.3-3.2,0.5c-0.4,0.1-0.8,0.3-1.1,0.2
		c-1.8-0.5-3.6-1.2-5.6-0.5c-0.6,0.2-1.6-0.8-2.4-1.2c-1.7-0.7-3.3-1.8-5.2-1c-0.1,0-0.3,0-0.4-0.1c-0.6-0.4-1.5-0.7-1.7-1.3
		c-0.7-2.2-4.1-3.1-3-6.3c0.2-0.5-0.4-1.2-0.6-1.8c-0.3-0.7-0.9-1.4-0.9-2.1c0.3-3.5,0-7.1-0.3-10.6c-0.4-4.3-0.8-8.7,2.2-12.3
		c2.3-2.6,4.8-5.2,8.9-5c1.3,0,2.6-0.6,3.4,0.9c0.1,0.1,0.7,0.1,0.9,0c1.8-1.8,3.9-1.7,6.2-1.3c0.4,0.1,0.9-0.2,1.3-0.4
		c0.4-0.2,1-0.6,1.3-0.5c1.8,0.8,3.3-0.5,5-0.6c1.2-0.1,2.2-0.7,3.2,0.6c0.1,0.2,0.8-0.1,1.3-0.2C212.1,22.5,213.8,22.5,215.6,24.7z
		 M202.7,54.2c-0.6,0-1.2-0.1-1.7,0c-1.1,0.1-1.1,0.9-0.5,1.5c0.3,0.3,1.1,0.3,1.4,0.1C202.4,55.4,203.8,55.3,202.7,54.2
		c4.2-0.1,4.3,0,5.4-3.3c0.3-0.9,0.5-1.9,0.6-2.8c0.3-2,0.6-3.9,1-5.9c0.2-0.9,0.8-1.9,0.6-2.7c-0.6-2.4-1.5-4.8-2.3-7.1
		c-0.4-1.1-0.9-1.9-2.3-1.2c-2.5,1.3-5.1,1.1-7.7,0.2c-0.4-0.1-0.8,0.1-1.3,0.2c-0.9,0.2-1.8,0.7-2.6,0.5c-1.8-0.6-3.2,0.5-4.7,0.8
		c-0.3,0.1-0.9,0.3-0.9,0.6c-0.3,1.6-0.9,3.4-0.5,4.9c0.8,3.6-0.9,7.4,1,10.8c0.1,0.1,0,0.4,0,0.6c0.1,2.5,1.6,4.2,3.5,5.9
		c0.4-0.7,0.7-1.1,0.9-1.5c1.4,1.3,4.9,2,5.5,1C200.1,53.3,201.4,53.9,202.7,54.2z"/>
</g>
</svg>
